<?xml version="1.0" standalone="no"?>
<!DOCTYPE svg PUBLIC "-//W3C//DTD SVG 20010904//EN"
 "http://www.w3.org/TR/2001/REC-SVG-20010904/DTD/svg10.dtd">
<svg version="1.0" xmlns="http://www.w3.org/2000/svg"
 width="1600.000000pt" height="1200.000000pt" viewBox="0 0 1600.000000 1200.000000"
 preserveAspectRatio="xMidYMid meet">

<g transform="translate(0.000000,1200.000000) scale(0.100000,-0.100000)"
fill="#000000" stroke="none">
<path d="M462 11988 c-18 -18 -15 -139 4 -166 20 -29 66 -52 104 -52 99 0 153
109 98 195 -21 32 -27 35 -73 34 l-50 -1 42 -14 c35 -13 44 -22 56 -59 14 -39
14 -45 -2 -71 -30 -49 -42 -54 -89 -42 -43 11 -59 29 -77 88 -7 23 -6 22 25
-8 18 -18 35 -30 39 -27 3 4 -3 14 -14 22 -14 11 -16 17 -7 20 6 3 12 15 12
29 0 21 3 23 33 18 17 -3 38 -8 45 -10 7 -2 10 1 7 6 -3 6 -19 10 -35 10 -15
0 -30 6 -32 12 -3 9 -9 8 -22 -5 -9 -9 -15 -21 -11 -26 8 -14 -9 -21 -25 -11
-12 7 -9 15 15 40 l29 30 -30 0 c-17 0 -35 -5 -42 -12z"/>
<path d="M941 11908 c-1 -37 4 -70 9 -73 12 -7 12 78 0 115 -6 18 -8 7 -9 -42z"/>
<path d="M1251 11966 c12 -10 60 -16 54 -6 -3 5 -18 10 -32 10 -15 0 -24 -2
-22 -4z"/>
<path d="M3684 11959 c-3 -5 -2 -65 2 -134 l7 -125 41 0 c23 -1 81 -3 130 -6
l89 -5 -8 133 c-4 73 -8 134 -8 134 -7 7 -249 9 -253 3z m186 -86 c23 -20 46
-45 51 -55 13 -23 2 -58 -17 -58 -12 0 -13 4 -3 21 9 18 6 26 -27 60 -45 46
-76 50 -118 13 -25 -22 -27 -29 -21 -61 6 -33 5 -35 -9 -24 -24 20 -21 78 5
91 11 7 29 20 40 31 28 28 54 23 99 -18z m-84 -47 c3 -8 13 -12 25 -9 16 5 19
0 19 -32 0 -42 -20 -44 -31 -4 -7 23 -7 23 -8 -4 -1 -17 -6 -27 -13 -25 -15 5
-32 54 -24 73 7 19 25 19 32 1z m92 -49 c2 -15 -1 -27 -7 -27 -14 0 -29 32
-24 48 8 21 28 8 31 -21z"/>
<path d="M1355 11893 c8 -71 15 -95 15 -50 0 21 5 27 23 28 l22 0 -22 9 c-20
8 -30 37 -24 73 0 4 -4 7 -10 7 -7 0 -8 -22 -4 -67z"/>
<path d="M1408 11948 c7 -7 12 -23 12 -37 0 -19 3 -22 12 -13 14 14 -4 62 -24
62 -9 0 -9 -3 0 -12z"/>
<path d="M1491 11913 c16 -93 18 -97 15 -31 -3 62 -2 67 18 71 14 3 11 5 -10
6 l-31 1 8 -47z"/>
<path d="M1831 11881 c2 -44 7 -82 11 -86 3 -4 51 -9 105 -12 89 -5 100 -4
116 14 14 17 16 30 11 77 -10 82 -16 86 -141 86 l-105 0 3 -79z m132 15 c25
-20 21 -40 -12 -53 -28 -10 -29 -10 -33 24 -6 47 9 56 45 29z"/>
<path d="M1156 11898 c7 -54 18 -78 37 -78 5 0 2 9 -7 19 -11 12 -17 33 -16
53 3 48 1 58 -10 58 -7 0 -8 -19 -4 -52z"/>
<path d="M2216 11935 c-9 -26 -7 -32 5 -12 6 10 9 21 6 23 -2 3 -7 -2 -11 -11z"/>
<path d="M598 11917 c25 -26 30 -46 8 -27 -13 10 -15 7 -13 -17 1 -20 -2 -27
-13 -24 -8 1 -27 4 -43 5 -25 2 -26 1 -12 -13 13 -13 17 -14 24 -3 7 11 11 10
24 -3 15 -14 17 -13 31 14 9 16 21 31 28 34 14 5 -27 57 -45 57 -6 0 -1 -10
11 -23z"/>
<path d="M2274 11926 c-19 -14 -19 -14 1 -13 18 2 20 -5 23 -55 2 -32 6 -58
10 -58 4 0 6 31 4 70 -2 38 -7 70 -11 70 -4 0 -16 -6 -27 -14z"/>
<path d="M2360 11914 c0 -19 7 -28 30 -35 24 -9 30 -17 30 -40 0 -24 -4 -29
-26 -29 -14 0 -23 -4 -19 -10 11 -17 40 -11 53 11 18 28 -2 79 -29 79 -28 0
-25 38 4 43 16 3 13 5 -10 6 -29 1 -33 -2 -33 -25z"/>
<path d="M2491 11933 l37 -4 -19 -60 c-21 -66 -24 -89 -11 -73 5 5 14 34 22
64 7 30 15 61 17 68 4 8 -7 12 -38 10 -42 -1 -43 -2 -8 -5z"/>
<path d="M2574 11918 c18 -26 21 -109 6 -139 -7 -11 -7 -19 -1 -19 13 0 25 56
22 104 -2 43 -16 76 -32 76 -6 0 -3 -10 5 -22z"/>
<path d="M2680 11932 c0 -7 9 -29 20 -49 11 -21 20 -50 20 -65 0 -16 5 -28 10
-28 6 0 10 14 10 30 0 17 9 49 19 70 11 22 16 40 11 40 -4 0 -15 -16 -25 -36
l-17 -36 -20 39 c-24 45 -28 50 -28 35z"/>
<path d="M546 11914 c-9 -23 10 -42 26 -26 10 10 9 16 -4 28 -14 14 -16 14
-22 -2z"/>
<path d="M993 11912 c10 -10 17 -33 17 -50 0 -18 4 -32 8 -32 11 0 2 72 -10
88 -6 6 -15 12 -21 12 -5 0 -3 -8 6 -18z"/>
<path d="M1083 11923 c16 -4 23 -30 19 -75 -1 -10 3 -18 8 -18 14 0 12 74 -2
88 -7 7 -19 11 -27 11 -12 -1 -12 -2 2 -6z"/>
<path d="M1215 11920 c-11 -18 6 -69 28 -85 12 -8 33 -15 47 -14 26 1 22 4
-22 13 -28 6 -52 54 -42 81 7 17 -2 20 -11 5z"/>
<path d="M3012 11923 c16 -4 19 -15 31 -118 2 -16 5 3 6 43 0 42 5 71 10 67 5
-3 12 -1 16 5 4 6 -10 10 -37 9 -24 -1 -35 -3 -26 -6z"/>
<path d="M3221 11853 c-1 -57 2 -73 13 -73 15 0 14 28 -4 110 -7 29 -8 22 -9
-37z"/>
<path d="M810 11891 c0 -23 43 -61 68 -60 l27 2 -28 4 c-18 3 -32 15 -42 34
-15 29 -25 37 -25 20z"/>
<path d="M1306 11873 c9 -38 14 -42 14 -10 0 14 -5 29 -10 32 -7 4 -8 -3 -4
-22z"/>
<path d="M2197 11893 c-10 -16 12 -99 31 -115 14 -12 14 -10 2 12 -8 14 -17
45 -20 70 -3 26 -8 40 -13 33z"/>
<path d="M4097 11894 c-11 -11 -8 -36 3 -29 6 3 15 -6 20 -20 13 -35 13 -35
-9 -35 -12 0 -21 8 -23 21 -2 16 -7 10 -20 -25 -9 -25 -13 -46 -8 -46 5 0 12
9 15 20 9 29 49 26 70 -6 27 -41 27 -23 0 46 -27 68 -37 84 -48 74z"/>
<path d="M4190 11831 c0 -39 5 -73 10 -76 6 -4 10 7 10 25 0 19 5 30 13 29 26
-4 47 14 47 40 0 35 -17 51 -52 51 -28 0 -28 0 -28 -69z m60 44 c16 -19 3 -55
-20 -55 -18 0 -36 42 -25 60 9 15 31 12 45 -5z"/>
<path d="M1062 11878 c-17 -17 -15 -45 3 -52 18 -7 20 5 3 23 -11 10 -9 15 6
27 11 8 15 14 10 14 -6 0 -15 -5 -22 -12z"/>
<path d="M2793 11883 c-20 -7 -16 -68 6 -87 15 -14 23 -15 45 -5 20 9 26 19
26 44 0 47 -32 67 -77 48z m55 -19 c16 -28 2 -64 -23 -64 -26 0 -40 28 -30 60
8 24 40 26 53 4z"/>
<path d="M2890 11866 c0 -45 21 -86 43 -85 15 0 17 2 7 6 -23 9 -30 24 -30 66
0 20 -4 37 -10 37 -5 0 -10 -11 -10 -24z"/>
<path d="M2960 11841 c0 -28 5 -51 10 -51 6 0 10 20 10 44 0 25 -4 48 -10 51
-6 4 -10 -13 -10 -44z"/>
<path d="M4298 11878 c-3 -7 -1 -40 2 -73 l7 -60 2 73 c1 69 -2 86 -11 60z"/>
<path d="M4400 11826 c0 -38 5 -68 11 -72 8 -5 10 3 7 25 -6 39 3 39 35 1 14
-16 30 -30 36 -30 5 0 -3 15 -20 32 -36 40 -36 45 -2 80 18 18 22 28 12 28 -8
0 -22 -14 -31 -30 -22 -38 -36 -38 -30 0 3 18 0 30 -7 30 -7 0 -11 -24 -11
-64z"/>
<path d="M3111 11848 c-2 -50 7 -68 33 -67 14 1 16 3 5 6 -9 2 -20 23 -26 51
-10 47 -10 47 -12 10z"/>
<path d="M3175 11835 c2 -63 15 -69 15 -7 0 29 -3 52 -8 52 -4 0 -7 -20 -7
-45z"/>
<path d="M3260 11873 c19 -7 40 -33 40 -50 0 -7 -9 -22 -20 -33 -15 -15 -16
-20 -5 -20 30 0 48 73 23 98 -7 7 -21 12 -32 11 -15 0 -16 -2 -6 -6z"/>
<path d="M3340 11861 c-5 -11 -10 -28 -10 -39 0 -25 34 -55 57 -49 15 4 15 5
-3 6 -20 1 -34 18 -34 42 0 5 16 9 35 9 33 0 34 1 23 25 -14 30 -53 34 -68 6z
m50 -6 c11 -13 8 -15 -14 -15 -25 0 -33 10 -19 23 10 11 19 8 33 -8z"/>
<path d="M4840 11790 c0 -56 4 -90 10 -90 7 0 10 33 9 90 -1 50 -5 90 -10 90
-5 0 -9 -40 -9 -90z"/>
<path d="M4953 11873 c-24 -9 -14 -47 17 -68 16 -11 30 -28 30 -38 0 -10 5
-15 10 -12 17 11 11 25 -26 59 -40 36 -38 61 2 53 13 -2 24 0 24 4 0 10 -37
11 -57 2z"/>
<path d="M5680 11774 c0 -54 3 -95 6 -91 9 8 10 178 2 184 -5 2 -8 -40 -8 -93z"/>
<path d="M5150 11850 c-8 -70 6 -120 35 -120 6 0 5 4 -2 8 -6 4 -14 23 -18 44
-6 29 -3 38 12 47 16 9 16 10 1 11 -9 0 -19 6 -21 13 -4 8 -6 7 -7 -3z"/>
<path d="M5213 11849 c-8 -8 -9 -17 -4 -23 5 -6 11 -29 13 -50 2 -24 9 -41 18
-44 12 -4 13 -2 3 9 -6 8 -13 38 -15 67 -2 42 -6 51 -15 41z"/>
<path d="M4522 11838 c-17 -17 -15 -63 5 -79 15 -13 15 -12 5 8 -17 31 -16 33
23 33 38 0 40 2 25 31 -12 21 -40 25 -58 7z m48 -13 c0 -9 -9 -15 -25 -15 -24
0 -32 10 -18 23 12 13 43 7 43 -8z"/>
<path d="M4606 11828 c3 -13 13 -38 20 -57 13 -30 12 -36 -2 -53 -10 -10 -12
-18 -6 -18 6 0 14 6 19 13 12 19 42 111 42 127 0 8 -7 -4 -16 -28 -17 -48 -29
-47 -39 3 -3 19 -11 35 -16 35 -5 0 -6 -10 -2 -22z"/>
<path d="M4705 11833 c-4 -12 2 -25 19 -40 34 -29 34 -47 0 -40 -16 3 -22 1
-16 -5 15 -15 46 -5 50 16 2 10 -5 24 -17 32 -28 20 -28 48 -1 39 11 -4 20 -2
20 4 0 18 -47 12 -55 -6z"/>
<path d="M5052 11828 c-18 -18 -14 -63 6 -81 20 -19 52 -23 52 -7 0 5 -7 7
-16 3 -11 -4 -22 1 -30 12 -19 26 -18 33 9 38 l22 4 -22 2 c-28 1 -20 31 8 31
17 0 24 -11 20 -32 0 -5 4 -8 9 -8 13 0 13 6 0 31 -12 21 -40 25 -58 7z"/>
<path d="M5283 11780 c0 -30 2 -43 4 -27 2 15 2 39 0 55 -2 15 -4 2 -4 -28z"/>
<path d="M5320 11780 c0 -27 5 -50 10 -50 6 0 10 23 10 50 0 28 -4 50 -10 50
-5 0 -10 -22 -10 -50z"/>
<path d="M5369 11821 c8 -5 16 -26 17 -47 2 -20 6 -39 9 -43 4 -3 5 17 3 44
-2 41 -7 50 -23 53 -16 2 -17 1 -6 -7z"/>
<path d="M5436 11808 c-21 -29 -20 -41 4 -69 21 -26 26 -19 9 13 -15 28 -3 68
21 68 24 0 31 -24 25 -85 -3 -34 -1 -45 5 -35 5 8 10 40 10 70 0 54 -1 56 -29
58 -21 2 -34 -4 -45 -20z"/>
<path d="M5546 11813 c-5 -11 2 -24 17 -37 13 -12 26 -28 30 -36 4 -11 6 -9 6
5 1 11 -8 27 -19 35 -11 8 -20 21 -20 28 0 9 7 12 20 9 11 -3 20 -1 20 4 0 16
-48 9 -54 -8z"/>
<path d="M4560 11750 c-13 -8 -12 -10 3 -10 9 0 17 5 17 10 0 12 -1 12 -20 0z"/>
<path d="M4940 11751 c0 -5 7 -11 15 -15 8 -3 15 -1 15 3 0 5 -7 11 -15 15 -8
3 -15 1 -15 -3z"/>
<path d="M5548 11728 c5 -5 16 -8 23 -6 8 3 3 7 -10 11 -17 4 -21 3 -13 -5z"/>
<path d="M5820 11730 c0 -5 5 -10 10 -10 6 0 10 5 10 10 0 6 -4 10 -10 10 -5
0 -10 -4 -10 -10z"/>
<path d="M0 8974 c0 -2449 1 -2576 18 -2570 14 5 14 4 -2 -9 -19 -14 -18 -15
15 -15 19 0 44 -6 55 -14 20 -15 44 -5 44 19 0 8 15 13 41 13 50 1 59 8 33 27
-17 12 -12 14 46 10 35 -2 66 -9 68 -15 5 -13 32 -13 32 0 0 6 -7 10 -16 10
-9 0 -14 6 -11 13 2 7 17 11 37 9 29 -3 32 -1 27 17 -7 27 -1 26 39 -4 39 -30
48 -32 35 -7 -8 15 -6 18 17 17 15 -1 35 5 45 13 10 9 17 11 17 4 0 -16 38
-10 45 6 4 12 8 12 21 1 13 -11 17 -10 25 4 11 18 39 23 39 7 0 -5 16 -10 35
-10 23 0 34 4 32 13 -1 7 11 13 31 15 31 3 33 4 15 17 -17 14 -17 14 0 15 10
0 16 4 13 9 -8 12 40 20 83 15 40 -5 111 23 111 44 0 22 25 13 42 -15 18 -29
16 -30 33 22 8 25 35 18 35 -9 0 -14 5 -28 10 -31 6 -4 10 5 10 20 0 15 11 36
26 50 31 29 42 31 50 10 4 -10 20 -15 49 -15 43 0 68 -14 43 -23 -24 -8 -3
-14 36 -9 28 3 35 7 25 14 -11 8 -11 11 -1 15 7 2 18 11 25 18 7 7 23 16 35
19 12 4 22 12 22 17 0 6 7 6 18 0 27 -15 48 7 24 26 -15 11 -11 12 28 7 25 -4
49 -10 54 -15 6 -5 21 -9 35 -9 19 0 22 3 12 9 -20 13 40 24 80 16 22 -5 29
-4 25 4 -9 14 5 14 40 1 19 -7 30 -7 40 1 9 7 31 8 64 4 42 -6 50 -4 50 9 0 9
8 16 19 16 26 0 36 -17 14 -23 -16 -4 -16 -5 1 -6 11 0 28 6 38 16 10 9 21 13
25 9 4 -4 1 -11 -7 -16 -10 -6 -2 -7 22 -3 24 3 43 1 53 -7 8 -7 15 -8 15 -3
0 6 10 8 23 6 14 -2 33 6 52 22 29 26 59 28 111 8 8 -3 14 0 14 6 0 15 27 14
33 -1 3 -8 6 -6 6 5 1 9 6 17 12 17 5 0 7 -4 4 -10 -8 -13 1 -13 25 2 16 11
22 9 35 -7 15 -20 15 -20 8 0 -3 11 -10 26 -16 32 -14 18 15 27 71 21 54 -6
72 -2 72 18 0 8 7 14 15 14 8 0 15 6 15 14 0 9 13 14 40 14 22 0 47 7 55 15 8
9 24 13 35 10 16 -4 20 0 21 23 0 16 3 23 6 17 2 -7 22 -13 43 -13 21 0 41 -4
44 -9 3 -5 18 -11 33 -14 l28 -5 -25 20 -25 21 33 -6 c20 -4 32 -3 32 5 0 7
18 9 52 6 29 -3 59 -2 68 2 8 5 35 14 58 21 35 10 48 10 64 0 11 -7 32 -10 49
-6 18 4 29 3 29 -4 0 -6 7 -11 16 -11 11 0 14 6 9 20 -5 16 -2 20 14 20 15 0
20 -6 18 -21 -1 -12 4 -24 11 -26 6 -3 12 2 12 11 0 9 5 16 10 16 6 0 10 -5
10 -11 0 -8 15 -10 47 -5 32 4 51 2 62 -8 18 -14 81 -4 81 14 0 13 -37 13 -45
0 -4 -6 -11 -7 -17 -4 -6 4 -25 11 -42 15 -24 5 -26 7 -8 8 12 1 25 8 28 16 7
17 34 21 34 5 0 -23 86 0 103 27 11 18 44 16 55 -4 9 -14 13 -13 38 10 16 15
39 27 51 27 12 0 28 7 36 15 19 19 159 25 165 7 3 -10 7 -10 18 -1 10 8 14 8
14 0 0 -6 5 -11 11 -11 5 0 7 5 3 11 -5 9 6 10 41 6 27 -3 60 0 74 6 15 6 29
11 33 11 3 1 10 4 14 9 13 13 24 8 24 -11 0 -26 11 -34 27 -21 10 9 17 8 28
-1 13 -11 22 -10 49 5 23 13 45 16 75 12 31 -4 41 -2 41 9 0 8 7 14 16 14 11
0 15 -6 11 -20 -7 -29 5 -32 79 -25 51 6 65 11 63 24 -3 31 1 51 10 51 5 0 11
-7 13 -17 2 -12 15 -17 53 -18 28 -2 58 -6 67 -10 9 -4 22 -4 28 0 6 4 17 1
25 -5 12 -10 15 -9 15 8 0 13 9 22 25 26 14 4 31 17 37 31 9 20 13 22 29 12
18 -11 18 -13 2 -25 -16 -11 -13 -12 22 -8 53 6 53 6 30 16 -19 8 -19 9 3 9
12 1 22 -3 22 -9 0 -5 12 -9 26 -8 18 2 29 11 39 34 7 17 23 39 36 48 13 9 24
22 24 29 0 15 50 77 62 77 9 0 45 51 44 63 -2 10 14 29 82 97 31 32 57 62 57
67 0 5 34 43 75 85 41 42 75 79 75 82 0 3 -7 6 -15 6 -12 0 -15 14 -15 70 l0
70 54 0 c45 0 58 -4 70 -22 19 -27 23 -24 29 25 3 21 7 40 10 43 8 8 37 -8 37
-21 0 -7 36 22 81 65 44 42 92 83 107 91 15 8 40 26 55 42 16 15 35 27 43 27
9 0 34 18 57 40 50 48 147 120 162 120 6 0 27 11 46 24 20 14 48 28 63 32 14
3 26 10 26 15 0 5 5 9 12 9 6 0 25 10 42 23 17 13 49 33 71 44 132 68 165 83
180 83 13 0 15 4 9 18 -5 9 -10 68 -12 130 -3 103 -5 112 -23 112 -16 0 -19 7
-19 40 0 33 3 40 20 40 17 0 20 7 20 45 l0 45 50 0 50 0 0 -44 c0 -44 0 -45
38 -48 36 -3 37 -4 40 -46 l3 -44 -38 4 -38 3 -3 -77 c-4 -97 7 -120 51 -113
76 13 77 15 77 238 l0 147 50 0 50 0 0 -71 c0 -64 2 -70 18 -63 9 4 40 9 68
12 66 5 107 -16 133 -66 24 -48 61 -54 82 -15 8 15 34 39 58 55 52 32 119 37
178 13 34 -15 113 -17 113 -4 0 4 14 5 30 4 17 -1 30 2 30 7 0 5 5 6 11 3 5
-4 26 1 46 10 29 14 37 15 44 4 6 -10 9 -7 9 12 0 14 6 33 13 43 12 17 25 18
123 14 60 -3 123 -11 139 -18 21 -10 96 -14 255 -15 124 -2 257 -5 295 -8 39
-3 111 -10 160 -14 50 -4 95 -8 100 -8 6 0 13 -4 16 -8 4 -5 11 5 17 23 11 30
13 31 59 28 l48 -3 3 -42 c3 -42 4 -43 38 -43 21 0 34 -5 34 -13 0 -9 11 -12
34 -9 19 2 58 -1 87 -7 l53 -12 38 44 c67 79 176 109 264 72 88 -37 133 -110
134 -217 0 -54 3 -68 15 -68 8 0 15 -5 15 -12 0 -6 3 -8 7 -4 4 3 9 52 12 109
l6 102 48 3 47 3 0 -119 c0 -136 10 -156 71 -150 46 4 57 32 65 161 l6 107 49
0 48 0 -5 -167 c-3 -93 -7 -174 -9 -180 -3 -7 -14 -13 -26 -13 -26 0 -23 -7 6
-12 11 -1 29 -12 40 -23 11 -11 27 -21 35 -23 8 -2 18 -9 22 -15 4 -7 8 -9 8
-4 0 4 11 0 25 -9 14 -9 25 -13 25 -8 0 5 7 -1 15 -13 9 -12 38 -34 65 -49 28
-15 50 -31 50 -36 0 -5 5 -6 10 -3 6 3 10 1 10 -4 0 -6 7 -11 15 -11 8 0 15
-7 15 -16 0 -8 4 -13 9 -9 5 3 16 -1 24 -9 8 -8 18 -12 21 -8 4 3 9 -4 13 -16
3 -12 9 -19 14 -16 5 3 9 -3 9 -12 0 -10 3 -14 6 -11 10 10 44 -12 44 -29 0
-8 5 -12 10 -9 6 3 10 1 10 -4 0 -6 7 -11 15 -11 8 0 15 -5 15 -11 0 -5 5 -7
10 -4 6 3 10 -1 10 -10 0 -9 4 -14 8 -11 9 5 36 -22 45 -45 4 -10 6 -10 6 -2
2 21 41 -19 41 -42 0 -16 2 -17 10 -5 6 10 10 11 10 3 0 -7 7 -13 15 -13 9 0
15 -9 15 -22 0 -19 2 -20 10 -8 5 8 10 10 10 4 0 -6 11 -17 25 -24 14 -7 25
-20 25 -27 0 -7 7 -16 15 -19 8 -4 15 -14 16 -23 0 -12 2 -12 9 4 8 18 9 17 9
-8 1 -17 5 -26 12 -22 6 4 13 -2 16 -13 2 -11 16 -25 29 -32 13 -8 24 -20 25
-29 0 -12 3 -11 9 4 8 19 9 19 9 -3 1 -13 5 -21 10 -18 5 3 12 -6 16 -21 4
-19 9 -23 14 -14 6 8 10 2 14 -19 4 -17 11 -29 17 -25 6 3 10 -4 10 -17 0 -18
2 -20 10 -8 6 10 10 11 10 3 0 -7 7 -13 15 -13 8 0 15 -3 14 -7 -3 -20 15 -53
32 -58 10 -4 19 -15 19 -25 0 -13 5 -18 15 -13 9 3 15 2 14 -3 -4 -21 2 -35
11 -29 6 3 13 -1 16 -10 6 -13 8 -14 15 -3 6 9 9 6 10 -12 0 -23 1 -23 9 -5 8
18 9 18 9 -5 1 -14 4 -36 8 -49 6 -23 7 -23 14 -5 5 14 9 4 15 -36 8 -54 8
-54 15 -20 5 29 7 30 9 10 l2 -25 9 25 c8 23 8 22 5 -7 -1 -18 1 -33 5 -33 4
0 10 -13 14 -29 7 -33 35 -51 36 -23 0 14 2 14 9 -3 l9 -20 1 20 1 20 9 -20
c7 -15 9 -8 11 30 l2 50 4 -42 c6 -62 21 -53 17 10 -2 40 -1 45 5 22 l8 -30 5
35 5 35 1 -40 c2 -31 4 -36 15 -26 10 10 14 -2 24 -61 l12 -73 -4 80 c-4 77
-3 78 6 26 12 -67 24 -82 16 -21 -6 51 6 30 22 -40 10 -44 10 -43 6 20 -3 44
-1 55 4 35 l8 -30 5 30 c3 17 4 5 3 -25 -2 -30 -1 -47 2 -37 2 9 9 14 15 11 7
-4 8 14 4 57 -5 52 -4 59 5 37 10 -27 29 -38 29 -18 0 6 5 10 10 10 6 0 10 -6
9 -12 -1 -7 -1 -22 1 -33 l1 -20 8 20 c7 16 9 13 15 -20 4 -24 15 -46 27 -53
11 -7 19 -8 19 -2 0 16 22 12 36 -7 7 -10 14 -13 14 -6 0 6 -4 15 -10 18 -15
9 -12 19 11 33 19 12 20 11 15 -25 -3 -21 -3 -29 0 -19 5 15 8 16 15 5 6 -10
8 -4 6 16 -2 17 -7 36 -11 43 -4 6 -2 20 3 29 9 16 10 16 11 -4 0 -27 26 -31
34 -5 3 9 3 -8 1 -38 -2 -30 -2 -48 1 -40 3 8 8 22 12 30 6 16 8 29 11 73 0
16 5 26 10 22 6 -3 8 -15 6 -27 -6 -30 13 -52 31 -37 11 9 18 9 28 0 7 -6 36
-11 63 -10 45 2 89 -13 105 -35 3 -5 13 -2 22 7 16 15 44 13 56 -4 3 -4 23 -4
45 0 22 3 80 3 129 -1 56 -4 96 -3 108 3 34 18 65 20 78 4 11 -13 14 -13 26 2
12 16 13 15 14 -10 0 -17 4 -26 10 -22 6 4 8 10 5 15 -3 4 2 11 11 14 23 9 34
7 32 -5 -4 -17 27 -33 48 -24 13 5 15 9 6 12 -17 6 -15 23 2 23 8 0 23 -13 33
-30 19 -32 28 -35 67 -20 20 7 27 6 35 -8 9 -14 11 -13 12 11 3 49 4 52 18 52
8 0 15 -8 17 -17 1 -11 -3 -15 -12 -11 -11 4 -13 -2 -11 -26 5 -40 17 -53 17
-17 0 15 4 25 9 21 5 -3 12 3 14 12 3 11 5 8 6 -9 1 -36 26 -37 59 -1 16 18
27 23 30 15 2 -6 8 -12 14 -12 6 0 8 7 5 14 -4 10 -1 13 9 9 8 -3 13 -8 10
-11 -8 -7 13 -42 25 -42 5 0 7 12 4 28 -3 15 -2 21 1 15 3 -7 16 -13 29 -13
12 0 28 -7 35 -15 16 -19 29 -19 51 1 16 15 19 14 36 -5 21 -25 53 -28 53 -5
0 10 5 14 15 10 8 -3 22 -9 30 -12 8 -3 15 -1 15 5 0 6 11 11 24 11 14 0 28 5
31 11 5 6 12 4 21 -8 7 -10 14 -13 14 -7 0 12 50 14 50 2 0 -3 14 -9 30 -13
17 -4 40 -16 50 -28 11 -11 20 -16 20 -9 0 6 -4 14 -10 17 -15 9 -12 22 5 29
10 4 20 -3 27 -19 11 -25 38 -35 38 -14 0 8 4 8 13 2 6 -6 21 -12 33 -15 15
-4 20 0 20 14 -1 16 7 20 47 23 43 4 47 2 48 -18 1 -14 3 -16 6 -6 5 19 63 22
63 3 0 -6 10 -14 22 -17 29 -8 36 -1 9 8 -29 9 -26 25 3 25 31 0 57 -10 51
-20 -2 -4 8 -5 23 -4 15 2 21 1 15 -2 -19 -9 -16 -26 5 -23 9 1 22 0 27 -1 27
-6 91 3 97 13 8 12 10 7 12 -23 2 -24 83 -21 85 3 1 4 1 16 1 27 0 11 5 20 11
20 6 0 9 -7 6 -15 -4 -8 -1 -17 5 -21 7 -4 6 -9 -2 -14 -7 -5 -2 -9 14 -12 16
-3 26 -1 26 6 0 7 15 10 40 8 24 -3 40 0 40 7 0 7 8 7 26 1 14 -6 54 -9 89 -7
53 2 66 -1 78 -17 8 -11 21 -17 28 -14 8 3 23 0 34 -8 10 -8 26 -14 34 -14 13
1 12 4 -3 15 -11 8 -17 18 -13 21 8 8 84 -24 104 -45 11 -11 17 -11 22 -2 6 9
11 9 20 -2 15 -19 100 -51 109 -42 4 4 1 10 -5 12 -7 3 -13 9 -13 14 0 17 18
9 47 -21 22 -23 37 -30 67 -30 33 0 37 2 26 15 -17 21 -9 26 28 19 21 -4 29
-11 25 -20 -4 -11 5 -14 46 -13 35 2 51 6 51 16 0 7 4 13 10 13 5 0 7 -7 3
-17 -5 -14 -1 -15 28 -10 25 5 30 4 19 -3 -13 -9 -13 -12 0 -23 8 -7 20 -21
26 -32 16 -28 32 -30 27 -2 -7 38 13 40 36 4 17 -26 18 -33 6 -35 -37 -8 -8
-28 33 -23 6 1 12 -4 13 -11 0 -7 6 0 13 16 11 24 14 25 20 11 5 -14 14 -16
51 -10 35 5 46 3 51 -9 4 -11 15 -13 41 -9 31 5 35 4 30 -10 -4 -11 -1 -17 8
-17 8 0 15 7 15 15 0 18 4 18 47 3 18 -7 33 -16 33 -22 0 -5 8 -1 19 8 15 13
30 16 72 11 87 -10 99 -14 93 -30 -4 -8 -2 -15 4 -15 5 0 12 7 16 15 3 10 19
15 45 15 25 0 41 -5 45 -15 3 -9 18 -15 36 -15 18 0 29 4 25 10 -3 6 -2 10 4
10 5 0 11 -7 13 -16 2 -11 16 -17 41 -20 l37 -3 0 2193 0 2192 -332 12 c-183
7 -454 17 -603 23 -148 5 -724 23 -1280 39 -555 16 -1084 32 -1175 35 -91 3
-329 10 -530 15 -201 5 -426 12 -500 15 -74 2 -220 7 -325 10 -104 3 -327 10
-495 15 -168 5 -386 12 -485 15 -99 3 -247 8 -330 10 -82 3 -310 10 -505 15
-195 5 -436 12 -535 15 -272 7 -536 14 -780 20 -231 5 -478 11 -830 20 -115 3
-316 7 -445 10 -129 3 -347 7 -485 10 -137 3 -488 10 -780 15 -516 9 -804 15
-1265 25 -124 3 -340 7 -480 10 -289 6 -1006 22 -1335 30 -121 3 -332 7 -470
10 -137 3 -356 8 -485 11 -585 13 -1200 24 -1367 24 l-183 0 0 -2576z m3668
78 c14 -9 18 -54 27 -304 l6 -168 -51 0 c-32 0 -52 5 -55 13 -6 18 -23 451
-18 460 6 10 75 9 91 -1z m-1011 -107 c14 -49 32 -114 40 -144 17 -60 26 -55
38 19 3 25 13 74 21 110 8 36 17 75 20 88 4 20 10 22 59 22 65 0 59 9 106
-155 17 -60 35 -116 38 -123 4 -7 18 47 30 119 13 73 25 138 28 146 6 15 80
18 101 4 11 -7 5 -49 -35 -225 l-48 -217 -64 3 -64 3 -23 70 c-12 39 -30 96
-39 129 -9 32 -19 55 -22 52 -4 -3 -18 -61 -33 -129 l-27 -122 -60 -3 -60 -3
-21 58 c-18 50 -98 303 -117 371 -6 22 -5 23 50 20 l58 -3 24 -90z m3160 49
c17 -5 23 -15 25 -47 2 -34 7 -42 23 -43 54 -2 55 -3 55 -44 l0 -40 -40 0 -40
0 0 -79 c0 -92 5 -111 30 -111 39 0 50 -11 50 -51 l0 -39 -56 0 c-50 0 -59 3
-90 34 l-34 34 0 104 c0 98 -1 104 -22 113 -33 14 -33 79 -1 83 19 3 21 8 16
32 -3 16 -3 36 0 45 7 15 44 20 84 9z m4321 -26 c17 -17 15 -64 -4 -82 -24
-24 -71 -20 -89 8 -15 23 -13 47 8 74 12 15 69 16 85 0z m-6677 -53 c46 -30
78 -91 79 -147 l0 -38 -125 0 c-136 0 -152 -8 -99 -49 33 -26 54 -26 87 -1 24
19 115 29 130 14 11 -11 -22 -62 -55 -87 -68 -51 -169 -43 -238 19 -95 86 -78
262 30 309 52 23 141 14 191 -20z m8519 1 c0 -27 -7 -39 -30 -56 -16 -12 -30
-28 -30 -36 0 -9 11 -14 30 -14 32 0 33 -2 24 -48 -5 -24 -12 -32 -33 -34
l-26 -3 -7 -120 c-5 -66 -10 -126 -13 -132 -2 -8 -23 -13 -50 -13 l-45 0 1 53
c0 28 4 89 7 135 7 74 6 82 -10 82 -27 0 -25 66 2 80 10 6 24 28 30 49 15 56
59 89 123 90 24 1 27 -2 27 -33z m-7985 10 c34 -14 95 -87 95 -113 0 -9 -14
-13 -48 -13 -39 0 -53 5 -72 25 -27 29 -65 32 -98 9 -18 -12 -22 -25 -22 -68
0 -94 67 -140 118 -81 15 18 32 25 56 25 72 0 85 -26 40 -80 -42 -49 -78 -63
-152 -57 -109 9 -172 79 -174 196 -1 70 20 114 72 148 39 27 131 31 185 9z
m360 3 c132 -37 180 -230 80 -318 -131 -115 -340 -8 -322 165 3 29 13 66 22
81 41 69 128 97 220 72z m6755 -26 c1 -94 -24 -409 -33 -420 -15 -20 -105 -14
-93 6 3 4 10 101 16 216 6 116 13 216 16 223 2 7 21 12 49 12 l45 0 0 -37z
m-6473 16 c8 -8 17 -8 31 0 37 20 106 13 146 -14 33 -22 66 -25 66 -5 0 13 59
24 110 21 25 -2 57 -12 72 -23 50 -35 61 -71 66 -210 l4 -128 -51 0 c-60 0
-59 -2 -63 142 -3 104 -11 121 -59 133 -17 4 -33 0 -50 -14 -23 -19 -24 -23
-21 -140 l3 -121 -43 0 c-24 0 -49 5 -56 12 -8 8 -12 48 -12 115 0 97 -2 106
-25 128 -30 30 -68 32 -96 4 -19 -19 -20 -27 -13 -135 l7 -114 -51 0 c-28 0
-53 3 -55 8 -3 4 -8 85 -12 180 l-8 172 50 0 c27 0 54 -5 60 -11z m788 -18
c22 -10 48 -28 58 -39 24 -27 46 -88 47 -129 l0 -33 -125 0 c-136 0 -152 -8
-99 -49 33 -26 54 -26 87 -1 29 23 127 29 127 8 0 -21 -43 -76 -75 -94 -79
-48 -213 -6 -254 79 -22 46 -28 137 -12 179 33 86 150 123 246 79z m5458 4
c59 -24 80 -60 75 -128 -7 -93 -65 -137 -180 -137 l-47 0 -3 -77 -3 -78 -49
-3 -49 -3 7 168 c4 92 9 192 12 221 l6 52 98 0 c63 0 110 -5 133 -15z m-4673
-21 c35 -17 77 -63 90 -99 16 -43 14 -128 -4 -163 -55 -106 -212 -123 -298
-33 -74 78 -73 197 2 265 22 20 50 38 62 40 53 12 64 13 93 8 17 -3 41 -11 55
-18z m5486 -24 l-6 -40 35 0 c34 0 35 -1 35 -39 0 -31 -4 -41 -20 -46 -11 -3
-24 -3 -30 0 -16 10 -30 -42 -30 -115 l0 -69 33 -3 c29 -3 32 -6 35 -40 4 -45
-12 -52 -83 -39 -78 15 -87 33 -83 163 3 97 1 108 -14 108 -27 0 -25 70 1 77
13 3 21 17 25 44 l6 39 51 0 52 0 -7 -40z m1667 -5 c-5 -54 -24 -214 -29 -247
-6 -37 -7 -38 -46 -38 l-41 0 7 147 c4 99 10 150 19 155 6 5 30 7 52 6 33 -3
40 -6 38 -23z m-3232 -142 c-2 -68 -6 -146 -10 -175 l-6 -53 -45 0 -45 0 2 85
c2 47 6 127 9 178 l6 93 46 -3 47 -3 -4 -122z m307 82 c2 -37 -4 -48 -74 -135
l-76 -95 71 -3 71 -3 0 -39 0 -40 -130 0 -130 0 0 38 c0 31 12 52 75 132 41
52 75 99 75 103 0 4 -15 7 -32 6 -18 -1 -50 -1 -71 0 -38 1 -38 1 -32 34 4 17
9 36 12 40 2 4 57 6 121 5 l117 -3 3 -40z m934 16 c30 -15 38 -16 42 -5 4 9
22 14 52 14 l46 0 -7 -142 c-4 -79 -9 -154 -10 -168 -2 -14 -4 -28 -4 -32 -1
-5 -21 -8 -46 -8 -33 0 -45 4 -45 14 0 12 -9 11 -46 -5 -74 -33 -154 -6 -190
64 -26 49 -23 144 6 195 46 81 128 111 202 73z m878 -21 c22 -11 47 -32 57
-46 39 -60 30 -179 -18 -231 -50 -53 -141 -77 -206 -52 -111 42 -136 203 -45
292 20 20 48 40 62 46 42 16 108 12 150 -9z m240 -5 c0 -14 3 -14 30 0 16 8
38 15 50 15 19 0 21 -5 18 -41 -3 -44 -13 -54 -61 -64 -37 -8 -46 -32 -55
-145 l-7 -95 -47 -3 c-47 -3 -48 -2 -48 25 0 46 20 297 25 311 7 19 95 16 95
-3z m229 -4 c7 -10 13 -10 29 -2 11 6 44 11 72 11 42 0 55 -5 75 -26 l24 -26
31 22 c61 44 148 36 190 -18 22 -27 25 -74 13 -219 l-6 -83 -48 0 -48 0 6 119
6 119 -26 17 c-15 9 -34 14 -45 11 -39 -13 -50 -38 -57 -131 -10 -141 -8 -137
-63 -133 -34 2 -47 7 -46 18 0 8 4 59 8 112 7 90 6 98 -13 117 -28 28 -65 27
-89 -4 -15 -19 -21 -48 -27 -130 l-7 -105 -50 0 -50 0 6 53 c3 28 8 102 12
162 5 84 10 113 22 123 20 15 70 11 81 -7z m602 -251 c48 -26 -2 -120 -54
-101 -50 18 -52 81 -4 101 29 12 35 12 58 0z m-7966 -595 c0 -5 -15 -11 -32
-13 -44 -4 -46 -37 -3 -45 40 -8 42 -40 3 -35 -22 2 -29 -1 -31 -19 -3 -18 2
-22 29 -25 55 -5 48 -28 -9 -28 -57 0 -58 2 -61 118 l-2 63 53 -3 c29 -2 53
-7 53 -13z m5642 -327 c-3 -8 -6 -5 -6 6 -1 11 2 17 5 13 3 -3 4 -12 1 -19z
m3063 -250 c0 -4 -10 -8 -22 -10 -22 -3 -23 -7 -11 -50 8 -28 -16 -21 -27 7
-11 30 -17 31 -43 8 -19 -18 -19 -17 -12 62 4 44 10 84 13 89 4 8 101 -91 102
-106z m-2323 -45 c-3 -10 -5 -2 -5 17 0 19 2 27 5 18 2 -10 2 -26 0 -35z
m-166 2 c8 19 9 19 6 1 -4 -32 -27 -31 -26 1 2 27 2 27 7 3 4 -23 5 -24 13 -5z
m-281 -15 c0 -5 -5 -10 -11 -10 -5 0 -7 5 -4 10 3 6 8 10 11 10 2 0 4 -4 4
-10z m427 -22 c-3 -7 -5 -2 -5 12 0 14 2 19 5 13 2 -7 2 -19 0 -25z m-106 -71
c-16 -16 -31 8 -30 48 2 30 2 30 9 -5 l7 -35 3 40 2 40 10 -38 c8 -28 7 -42
-1 -50z m39 49 c0 -3 -4 -8 -10 -11 -5 -3 -10 -1 -10 4 0 6 5 11 10 11 6 0 10
-2 10 -4z m545 -16 c-3 -5 -13 -10 -21 -10 -8 0 -14 5 -14 10 0 6 9 10 21 10
11 0 17 -4 14 -10z m-7425 -30 c0 -5 -4 -10 -10 -10 -5 0 -10 5 -10 10 0 6 5
10 10 10 6 0 10 -4 10 -10z m7885 0 c3 -5 1 -10 -4 -10 -6 0 -11 5 -11 10 0 6
2 10 4 10 3 0 8 -4 11 -10z m62 -6 c-3 -3 -12 -4 -19 -1 -8 3 -5 6 6 6 11 1
17 -2 13 -5z m428 -34 c-3 -5 -10 -10 -16 -10 -5 0 -9 5 -9 10 0 6 7 10 16 10
8 0 12 -4 9 -10z m-8985 -22 c0 -16 -3 -19 -11 -11 -6 6 -8 16 -5 22 11 17 16
13 16 -11z m325 -18 c-3 -5 -25 -9 -48 -8 l-42 1 45 7 c25 4 46 8 48 8 2 1 0
-2 -3 -8z m9585 -30 c0 -5 -9 -10 -20 -10 -11 0 -20 5 -20 10 0 6 9 10 20 10
11 0 20 -4 20 -10z m-10800 -44 c0 -3 -4 -8 -10 -11 -5 -3 -10 -1 -10 4 0 6 5
11 10 11 6 0 10 -2 10 -4z m-110 -26 c0 -5 -2 -10 -4 -10 -3 0 -8 5 -11 10 -3
6 -1 10 4 10 6 0 11 -4 11 -10z m-180 -26 c0 -2 -7 -4 -15 -4 -8 0 -15 4 -15
10 0 5 7 7 15 4 8 -4 15 -8 15 -10z m11995 -13 c3 -5 1 -12 -5 -16 -5 -3 -10
1 -10 9 0 18 6 21 15 7z m191 -20 c-8 -12 -46 -21 -46 -11 0 5 10 11 23 13 12
2 23 5 25 6 2 0 1 -3 -2 -8z m-12776 -91 c-24 -15 -36 -11 -14 4 10 8 21 12
24 10 2 -3 -2 -9 -10 -14z m117 4 c-3 -3 -12 -4 -19 -1 -8 3 -5 6 6 6 11 1 17
-2 13 -5z m12798 -4 c-3 -5 -11 -10 -16 -10 -6 0 -7 5 -4 10 3 6 11 10 16 10
6 0 7 -4 4 -10z m-12947 -41 c-2 -6 -8 -10 -13 -10 -5 0 -11 4 -13 10 -2 6 4
11 13 11 9 0 15 -5 13 -11z m-343 -47 c-3 -3 -11 0 -18 7 -9 10 -8 11 6 5 10
-3 15 -9 12 -12z m-595 -62 c0 -5 -7 -10 -16 -10 -8 0 -12 5 -9 10 3 6 10 10
16 10 5 0 9 -4 9 -10z m-330 -40 c0 -5 -4 -10 -10 -10 -5 0 -10 5 -10 10 0 6
5 10 10 10 6 0 10 -4 10 -10z m-165 -70 c3 -5 1 -10 -4 -10 -6 0 -11 5 -11 10
0 6 2 10 4 10 3 0 8 -4 11 -10z m-85 -4 c0 -11 -19 -15 -25 -6 -3 5 1 10 9 10
9 0 16 -2 16 -4z m-200 -86 c0 -5 -4 -10 -10 -10 -5 0 -10 5 -10 10 0 6 5 10
10 10 6 0 10 -4 10 -10z m80 -10 c0 -5 -7 -7 -15 -4 -8 4 -15 8 -15 10 0 2 7
4 15 4 8 0 15 -4 15 -10z m-405 -49 c7 -12 -31 -25 -46 -15 -8 4 -7 9 2 15 18
11 36 11 44 0z"/>
<path d="M3307 8842 c-31 -34 -21 -42 48 -42 70 0 82 11 47 43 -25 22 -75 21
-95 -1z"/>
<path d="M4264 8838 c-67 -32 -50 -167 23 -181 82 -16 126 111 58 171 -28 24
-48 26 -81 10z"/>
<path d="M5297 8812 c-31 -34 -21 -42 53 -42 39 0 70 4 70 8 0 5 -10 18 -23
30 -29 27 -78 29 -100 4z"/>
<path d="M10740 8780 l0 -60 38 0 c49 0 82 23 82 59 0 39 -28 61 -78 61 l-42
0 0 -60z"/>
<path d="M6075 8785 c-44 -43 -24 -147 30 -161 44 -11 75 4 91 43 42 99 -51
189 -121 118z"/>
<path d="M11275 8716 c-33 -33 -42 -89 -21 -121 53 -81 152 -41 149 59 -3 75
-78 112 -128 62z"/>
<path d="M12131 8716 c-78 -43 -60 -176 24 -176 44 0 75 38 75 91 0 51 -8 67
-41 84 -33 18 -28 18 -58 1z"/>
<path d="M9284 8816 c-43 -43 -44 -61 -2 -64 43 -3 167 -42 174 -54 8 -13 24
10 24 35 0 34 -32 88 -61 102 -49 26 -97 19 -135 -19z"/>
<path d="M6875 8775 c-30 -29 -34 -75 -7 -75 10 0 22 3 25 7 4 3 19 8 35 10
15 1 33 3 39 4 17 3 6 50 -15 67 -24 19 -50 15 -77 -13z"/>
<path d="M5418 7853 c-2 -16 -1 -41 3 -58 4 -16 7 -24 8 -17 0 7 5 11 10 8 12
-8 42 59 35 78 -3 9 -16 16 -29 16 -17 0 -24 -7 -27 -27z"/>
<path d="M11367 7235 c3 -33 7 -62 9 -64 8 -8 2 74 -7 99 -5 16 -6 4 -2 -35z"/>
<path d="M11339 7239 c-1 -38 -2 -40 -10 -19 -7 23 -8 24 -6 2 1 -12 6 -22 11
-22 5 1 13 -4 17 -12 5 -7 6 8 3 37 -9 65 -14 70 -15 14z"/>
<path d="M11503 7240 c0 -25 2 -35 4 -22 2 12 2 32 0 45 -2 12 -4 2 -4 -23z"/>
<path d="M11521 7254 c0 -11 3 -14 6 -6 3 7 2 16 -1 19 -3 4 -6 -2 -5 -13z"/>
<path d="M11712 7210 c0 -14 2 -19 5 -12 2 6 2 18 0 25 -3 6 -5 1 -5 -13z"/>
<path d="M11532 7200 c0 -14 2 -19 5 -12 2 6 2 18 0 25 -3 6 -5 1 -5 -13z"/>
<path d="M5385 7176 c-17 -7 -39 -26 -50 -42 -18 -27 -18 -46 -6 -509 6 -264
14 -637 18 -830 l6 -350 -49 -17 c-27 -9 -61 -19 -76 -22 -68 -15 -67 -74 2
-120 22 -14 42 -26 45 -26 7 0 26 -15 61 -47 29 -26 34 -96 8 -111 -15 -8
-120 8 -144 23 -6 4 -22 30 -34 58 -13 29 -33 62 -45 74 -11 12 -21 27 -21 32
0 5 -9 13 -21 16 -11 4 -44 26 -72 49 -77 61 -153 116 -164 116 -4 0 -26 12
-48 27 -22 15 -74 45 -115 66 -178 91 -217 98 -560 89 -665 -16 -1084 -5
-1151 29 -33 17 -336 41 -569 45 -249 4 -387 -5 -463 -32 -22 -8 -92 -21 -156
-29 -130 -17 -132 -18 -216 -50 -33 -12 -87 -26 -120 -30 -41 -5 -72 -16 -100
-35 -26 -19 -63 -33 -105 -40 -36 -6 -81 -22 -101 -35 -21 -13 -71 -30 -113
-38 -43 -8 -86 -23 -96 -32 -11 -10 -60 -25 -120 -36 -56 -10 -119 -27 -141
-38 -62 -33 -231 -53 -343 -41 -50 5 -143 11 -206 12 l-115 3 -3 -2652 -2
-2653 8000 0 8000 0 0 538 0 538 -46 42 c-28 25 -44 47 -41 56 3 7 24 22 46
32 l40 19 1 2084 0 2083 -62 -6 c-35 -4 -87 -18 -117 -32 -30 -13 -82 -29
-115 -34 -77 -11 -124 -25 -145 -43 -9 -8 -56 -22 -106 -31 -49 -9 -100 -24
-112 -32 -21 -13 -133 -41 -195 -48 -15 -1 -33 -7 -40 -13 -33 -26 -106 -39
-303 -53 -77 -6 -156 -13 -175 -16 -75 -13 -754 -5 -1103 12 -157 8 -558 -11
-647 -31 -36 -8 -105 -18 -155 -21 -104 -7 -263 -37 -303 -57 -15 -8 -65 -17
-111 -21 -54 -4 -108 -16 -149 -33 -58 -23 -72 -25 -136 -18 -125 13 -227 10
-240 -7 -7 -9 -23 -15 -39 -13 -15 2 -29 -1 -32 -5 -3 -5 -12 -7 -20 -3 -8 3
-15 0 -15 -7 0 -7 -5 -6 -15 4 -8 8 -15 18 -15 23 0 12 -179 53 -232 53 -24 0
-48 4 -53 9 -20 18 -143 51 -225 61 -47 6 -116 20 -155 32 -97 30 -85 28 -237
30 -133 1 -138 2 -138 22 0 24 5 119 55 1041 20 358 40 704 45 770 7 105 6
124 -9 150 -37 66 38 62 -1281 69 -657 3 -1339 8 -1515 11 -176 3 -763 10
-1305 15 -542 6 -1030 12 -1085 15 -72 4 -108 1 -130 -9z m1650 -576 c8 -27
-1 -40 -30 -40 -27 0 -41 26 -24 46 17 20 47 17 54 -6z m-505 -84 l0 -85 33
-3 c20 -2 32 -8 32 -18 0 -12 -13 -15 -60 -15 l-60 0 -3 89 c-3 106 -1 116 33
116 25 0 25 -1 25 -84z m840 55 c0 -10 9 -21 20 -24 11 -3 20 -13 20 -22 0 -9
-9 -19 -20 -22 -29 -8 -28 -68 1 -76 27 -7 21 -41 -8 -45 -44 -6 -63 14 -63
68 0 27 -4 52 -10 55 -5 3 -10 15 -10 26 0 10 5 19 10 19 6 0 10 9 10 20 0 15
7 20 25 20 18 0 25 -5 25 -19z m360 -22 l18 -42 21 42 c16 31 27 41 46 41 14
0 25 -4 25 -8 0 -4 -16 -37 -35 -72 -19 -36 -35 -80 -35 -97 0 -28 -4 -33 -25
-33 -22 0 -25 4 -25 38 0 23 -11 56 -30 87 -37 63 -39 85 -5 85 21 0 30 -9 45
-41z m817 -66 c23 -71 28 -100 20 -105 -18 -12 -26 -10 -44 12 -21 24 -83 28
-83 5 0 -10 -10 -15 -31 -15 -17 0 -29 4 -27 9 2 4 19 49 38 100 34 87 36 91
66 91 29 0 31 -2 61 -97z m993 71 c0 -9 9 -18 20 -21 11 -3 20 -11 20 -19 0
-7 -9 -18 -20 -24 -25 -13 -29 -80 -5 -80 8 0 15 -9 15 -21 0 -17 -5 -20 -37
-17 l-38 3 -3 55 c-2 30 -8 60 -14 68 -8 9 -8 16 0 24 7 7 12 20 12 30 0 13 8
18 25 18 16 0 25 -6 25 -16z m-2816 -4 c14 -5 31 -21 39 -36 14 -27 15 -27 22
-6 11 37 45 52 103 48 29 -3 56 -8 62 -11 12 -7 11 -140 -1 -181 -16 -54 -94
-72 -143 -33 -14 11 -26 27 -26 35 0 16 45 20 55 4 10 -16 52 -12 59 6 5 13 1
14 -22 10 -34 -7 -73 12 -89 44 l-12 24 -12 -27 c-16 -34 -71 -53 -111 -38
-35 13 -61 63 -53 101 12 56 70 83 129 60z m479 -18 c13 -11 17 -31 17 -78 0
-67 -5 -76 -37 -68 -18 5 -20 12 -17 45 6 52 -10 83 -36 69 -16 -8 -20 -21
-20 -60 0 -47 -2 -50 -25 -50 -25 0 -25 1 -25 79 l0 80 43 4 c52 4 77 -1 100
-21z m-173 -62 c0 -79 0 -80 -25 -80 -25 0 -25 1 -25 80 0 79 0 80 25 80 25 0
25 -1 25 -80z m525 64 c44 -29 42 -106 -4 -141 -24 -18 -86 -16 -110 5 -12 9
-24 34 -28 54 -5 32 -1 41 25 68 35 34 78 40 117 14z m438 -15 c45 -55 3 -143
-68 -143 -80 0 -113 87 -55 146 27 26 36 30 68 25 20 -4 45 -16 55 -28z m89
-37 c3 -49 6 -57 23 -57 17 0 20 8 23 50 3 52 22 78 48 68 10 -4 14 -26 14
-84 l0 -79 -47 -2 c-69 -2 -86 1 -102 17 -19 19 -23 122 -5 140 26 26 43 7 46
-53z m232 25 c-3 -8 -14 -17 -24 -20 -15 -4 -20 -16 -22 -53 -3 -45 -5 -49
-31 -52 l-28 -3 3 78 3 78 37 0 c20 1 40 4 44 8 11 11 25 -18 18 -36z m407 20
c43 -33 22 -72 -26 -47 -32 17 -55 6 -55 -25 0 -30 25 -43 51 -27 28 18 49 14
49 -7 0 -41 -83 -67 -121 -38 -66 50 -32 157 50 157 20 0 43 -6 52 -13z m167
-3 c44 -31 19 -71 -27 -42 -26 16 -51 3 -51 -27 0 -30 25 -43 51 -27 27 17 49
15 49 -5 0 -28 -31 -53 -66 -53 -46 0 -63 8 -80 42 -41 79 52 163 124 112z
m176 -5 c34 -27 37 -91 4 -126 -32 -34 -99 -32 -127 3 -30 38 -27 80 8 115 35
35 77 38 115 8z m98 -35 c-3 -37 1 -54 12 -63 26 -22 46 4 46 59 0 35 4 50 16
54 28 11 34 -4 34 -85 l0 -79 -47 -1 c-69 -2 -76 0 -95 23 -13 14 -18 37 -18
77 0 64 5 73 35 69 18 -3 20 -9 17 -54z m279 27 c19 -23 25 -74 13 -118 -4
-16 -14 -23 -30 -23 -21 0 -23 5 -26 58 -3 49 -6 57 -23 57 -17 0 -20 -8 -23
-58 -3 -57 -4 -58 -30 -55 l-27 3 4 75 c2 41 7 77 11 80 5 3 31 5 60 5 42 0
55 -4 71 -24z m-3336 -690 c-31 -5 -40 -10 -40 -26 0 -16 8 -21 40 -24 l40 -5
-40 -5 c-34 -5 -40 -9 -40 -31 0 -21 6 -26 40 -31 l40 -7 -45 2 -45 1 -3 68
-3 67 48 -1 48 -2 -40 -6z m400 -61 c0 -33 -3 -60 -7 -60 -5 0 -8 27 -8 60 0
33 3 60 8 60 4 0 7 -27 7 -60z m275 -5 c0 -36 -4 -65 -8 -65 -4 0 -8 29 -7 65
0 36 3 65 8 65 4 0 7 -29 7 -65z m107 3 c-2 -62 -2 -63 -32 -66 l-30 -3 25 14
c23 12 25 18 22 65 -3 33 0 52 7 52 7 0 10 -23 8 -62z m773 47 c13 -16 10 -47
-6 -52 -7 -2 -9 8 -6 27 4 29 3 30 -31 30 l-35 0 0 -55 c1 -51 -6 -75 -16 -64
-3 2 -2 32 1 67 l6 62 37 0 c21 0 43 -7 50 -15z m49 -50 c1 -38 -3 -65 -9 -65
-6 0 -10 28 -10 65 0 36 4 65 9 65 5 0 9 -29 10 -65z m516 15 c16 -27 33 -50
37 -50 4 0 8 23 8 50 0 28 5 50 10 50 8 0 4 -127 -5 -138 -1 -1 -17 20 -36 48
-19 27 -37 50 -41 50 -4 0 -9 -21 -11 -47 -3 -40 -4 -37 -5 20 -1 37 2 67 6
67 4 0 21 -22 37 -50z m375 25 c0 -9 9 -15 25 -15 31 0 51 -40 35 -71 -15 -27
-17 -24 -16 19 1 31 -3 38 -20 40 -33 5 -43 -47 -14 -70 l22 -18 -26 2 c-25 2
-26 4 -25 65 1 35 5 63 10 63 5 0 9 -7 9 -15z m-2408 -42 c-5 -59 -10 -63 -11
-10 -1 26 3 47 7 47 4 0 6 -17 4 -37z m54 -14 c1 -44 1 -44 -3 -4 -3 22 -10
44 -16 48 -8 6 -7 7 3 4 10 -2 15 -18 16 -48z m60 3 l1 -42 -4 39 c-3 31 -9
41 -26 45 -18 4 -18 4 3 3 22 -2 25 -7 26 -45z m64 38 c-20 -13 -33 -13 -25 0
3 6 14 10 23 10 15 0 15 -2 2 -10z m87 -57 c-2 -16 -4 -5 -4 22 0 28 2 40 4
28 2 -13 2 -35 0 -50z m157 53 c-10 -8 -21 -12 -24 -10 -5 6 21 24 34 24 6 0
1 -6 -10 -14z m54 -33 c3 -36 0 -41 -22 -47 -59 -15 -79 39 -21 57 39 13 42
16 25 28 -13 9 -13 10 0 6 9 -2 16 -18 18 -44z m60 36 c-27 -15 -24 -67 5 -79
15 -6 17 -9 6 -9 -19 -1 -34 15 -41 45 -7 27 8 54 30 54 16 -1 16 -1 0 -11z
m114 1 c-12 -5 -27 -20 -32 -32 -5 -13 -9 -17 -9 -10 -2 26 20 52 42 51 l22 0
-23 -9z m113 1 c-14 -6 -22 -21 -26 -52 l-6 -44 -1 53 c-2 51 -1 52 26 51 23
0 24 -1 7 -8z m93 -3 c14 -14 16 -38 3 -38 -5 0 -8 8 -7 17 0 12 -7 19 -21 21
-13 2 -23 0 -24 -5 0 -4 -2 -21 -4 -36 -5 -34 18 -46 49 -27 19 12 20 12 7 -3
-28 -34 -71 -14 -71 33 0 29 16 50 40 50 9 0 21 -5 28 -12z m102 3 c0 -4 -11
-6 -25 -3 -35 6 -31 -14 6 -33 19 -10 29 -22 27 -33 -4 -20 -40 -27 -65 -13
-15 8 -12 9 12 8 40 -3 46 15 12 31 -26 13 -34 31 -20 45 9 10 53 8 53 -2z
m94 0 c3 -4 -5 -6 -18 -4 -38 8 -39 -13 -1 -31 38 -19 38 -18 29 -40 -4 -10
-17 -15 -38 -15 -30 2 -30 2 -3 6 36 6 34 24 -4 46 -26 14 -29 20 -19 32 14
16 46 20 54 6z m164 -3 c17 -17 15 -63 -4 -78 -22 -19 -68 -1 -72 27 -7 50 44
83 76 51z m70 1 c-12 -7 -18 -22 -18 -49 0 -22 -4 -40 -10 -40 -11 0 -14 83
-3 93 3 4 16 7 27 7 19 -1 19 -2 4 -11z m288 -13 c3 -13 4 -37 1 -52 -3 -22
-4 -19 -6 13 -1 28 -7 45 -18 52 -17 10 -17 10 -1 11 10 0 20 -10 24 -24z
m110 -5 c13 -26 5 -62 -15 -69 -10 -3 -10 0 0 15 14 24 4 73 -15 73 -7 0 -19
-7 -26 -15 -12 -14 -11 -27 5 -70 l8 -20 -16 20 c-20 24 -22 66 -5 83 19 19
51 10 64 -17z m44 -31 l-7 -45 -2 55 c0 32 3 50 8 45 5 -6 5 -30 1 -55z m54
44 c18 -17 22 -84 6 -84 -5 0 -10 17 -10 38 0 21 -5 43 -12 50 -7 7 -9 12 -6
12 4 0 14 -7 22 -16z m73 -2 c-23 -25 -21 -32 9 -32 22 0 25 4 21 21 -4 16 -3
18 9 8 27 -23 16 -39 -27 -39 -33 0 -40 -3 -35 -16 3 -8 2 -12 -4 -9 -16 10
-11 44 10 65 25 25 39 26 17 2z m-1627 -6 c0 -7 -14 -16 -30 -20 -19 -3 -34
-14 -40 -28 -9 -23 -9 -23 -9 -1 -1 15 10 27 37 41 20 11 38 20 40 21 1 0 2
-5 2 -13z m1927 -73 c15 -12 15 -13 1 -13 -25 0 -40 26 -35 62 7 48 10 48 14
3 2 -22 11 -46 20 -52z m43 35 c0 -29 -4 -48 -9 -42 -8 8 -3 94 5 94 2 0 4
-23 4 -52z m42 5 c-7 -65 -12 -67 -12 -5 0 29 4 52 9 52 5 0 6 -21 3 -47z m61
-6 c-8 -57 -10 -57 -14 1 -3 34 0 48 7 45 8 -3 10 -19 7 -46z m55 1 l-2 -53
-3 47 c-3 33 -9 48 -21 51 -12 3 -11 5 6 6 20 1 22 -3 20 -51z m210 40 c18
-18 15 -38 -5 -38 -15 0 -16 2 -3 10 11 7 12 12 3 21 -21 21 -48 6 -54 -31 -6
-33 -14 -14 -9 20 4 29 46 40 68 18z m77 3 c-14 -6 -22 -21 -26 -52 l-6 -44
-1 53 c-2 51 -1 52 26 51 23 0 24 -1 7 -8z m-1208 -27 c-3 -3 -12 -4 -19 -1
-8 3 -5 6 6 6 11 1 17 -2 13 -5z m-1207 -24 c0 -11 -7 -20 -15 -20 -13 0 -14
4 -5 20 6 11 13 20 15 20 3 0 5 -9 5 -20z m1660 -30 c-8 -6 -22 -10 -30 -10
-8 0 -4 6 10 13 27 15 44 12 20 -3z m680 5 c-7 -8 -22 -15 -34 -15 -20 0 -19
1 4 14 34 19 45 19 30 1z m-2637 -712 c-7 -2 -21 -2 -30 0 -10 3 -4 5 12 5 17
0 24 -2 18 -5z m749 -40 c-4 -30 -6 -34 -12 -18 -7 21 -2 55 9 55 4 0 5 -17 3
-37z m-712 7 c0 -11 -4 -20 -9 -20 -5 0 -7 9 -4 20 3 11 7 20 9 20 2 0 4 -9 4
-20z m387 -22 c-3 -8 -6 -5 -6 6 -1 11 2 17 5 13 3 -3 4 -12 1 -19z m96 7 c-3
-9 -8 -14 -10 -11 -3 3 -2 9 2 15 9 16 15 13 8 -4z m105 -5 c-14 -22 -24 -19
-15 5 4 8 11 15 17 15 6 0 6 -7 -2 -20z m54 -17 c-3 -16 -7 -22 -10 -15 -4 13
4 42 11 42 2 0 2 -12 -1 -27z m3824 10 c7 -10 14 -32 14 -50 0 -36 20 -56 21
-21 0 22 1 22 9 3 8 -19 9 -18 11 5 l2 25 4 -24 c4 -19 7 -21 15 -10 7 11 11
11 15 2 2 -7 16 -13 29 -13 13 0 24 -3 24 -7 0 -5 17 -9 38 -10 20 -1 128 -7
240 -13 212 -12 244 -8 301 28 14 10 49 17 87 18 53 1 64 -1 65 -15 0 -10 2
-11 6 -4 3 10 12 9 35 -3 17 -9 52 -17 78 -18 51 -2 102 -28 85 -44 -5 -5 -39
-17 -74 -27 -36 -9 -71 -23 -78 -31 -22 -22 -91 -36 -184 -39 -47 -1 -90 -4
-95 -6 -5 -2 -28 -4 -51 -4 -24 0 -43 -4 -43 -10 0 -5 -5 -3 -10 5 -9 13 -11
13 -20 0 -5 -8 -10 -11 -10 -7 0 4 -9 3 -19 -3 -12 -6 -22 -6 -25 -1 -4 6 -20
6 -41 0 -19 -6 -40 -7 -45 -4 -5 3 -18 2 -28 -4 -10 -5 -51 -12 -91 -16 -40
-3 -92 -10 -115 -14 -23 -4 -50 -7 -59 -5 -9 1 -17 -1 -17 -5 0 -4 -12 -8 -27
-9 -47 -2 -68 -7 -75 -17 -4 -5 -8 24 -8 65 0 101 12 300 18 300 3 0 11 -8 18
-17z m-4559 -45 c-2 -13 -4 -5 -4 17 -1 22 1 32 4 23 2 -10 2 -28 0 -40z m66
35 c-7 -2 -19 -2 -25 0 -7 3 -2 5 12 5 14 0 19 -2 13 -5z m65 -23 c-7 -11 -15
-15 -17 -9 -2 6 3 15 10 20 20 12 21 11 7 -11z m672 -10 c0 -11 -4 -20 -9 -20
-5 0 -7 9 -4 20 3 11 7 20 9 20 2 0 4 -9 4 -20z m-610 -6 c0 -8 -5 -12 -10 -9
-6 4 -8 11 -5 16 9 14 15 11 15 -7z m256 -11 c-10 -10 -19 5 -10 18 6 11 8 11
12 0 2 -7 1 -15 -2 -18z m68 12 c-6 -16 -24 -21 -24 -7 0 11 11 22 21 22 5 0
6 -7 3 -15z m108 -7 c-7 -7 -12 -8 -12 -2 0 14 12 26 19 19 2 -3 -1 -11 -7
-17z m-1814 -13 c12 -11 -11 -18 -60 -18 -58 0 -98 9 -98 23 0 18 140 13 158
-5z m315 -65 c-12 -5 -61 -10 -110 -11 -115 -2 -133 -1 -133 9 0 5 60 10 133
10 88 1 125 -2 110 -8z m137 -224 c17 -2 26 -11 32 -32 7 -27 29 -1052 23
-1104 -1 -14 -3 -40 -4 -58 -1 -37 -14 -39 -66 -11 -19 10 -29 23 -27 34 2 9
-1 14 -6 11 -6 -3 -12 1 -16 9 -3 8 -12 15 -20 15 -8 0 -18 10 -22 22 -14 46
-32 53 -128 53 -82 0 -95 3 -133 27 -53 34 -54 38 -42 79 5 19 7 50 4 71 -6
32 -12 38 -58 58 -87 35 -97 43 -103 69 -3 14 -10 43 -16 64 -18 61 11 89 102
101 25 3 46 5 48 5 1 1 2 7 2 15 0 17 -43 33 -113 42 -40 6 -60 15 -84 40 -18
17 -33 39 -33 47 0 9 24 40 53 70 57 60 96 76 182 78 60 1 104 12 89 22 -6 3
-40 9 -75 13 -59 6 -119 29 -119 45 0 15 68 29 186 38 115 10 199 29 199 46 0
9 -88 41 -137 50 -60 10 -44 22 39 29 61 5 86 12 122 35 30 20 53 28 70 25 15
-2 37 -6 51 -8z m5760 -70 c0 -2 -11 -6 -25 -8 -14 -3 -25 -1 -25 3 0 5 11 9
25 9 14 0 25 -2 25 -4z m-7420 -206 c0 -5 -7 -10 -15 -10 -8 0 -15 5 -15 10 0
6 7 10 15 10 8 0 15 -4 15 -10z m4080 -179 l0 -70 38 -3 c55 -5 45 -23 -15
-26 l-53 -3 0 85 c0 70 3 86 15 86 12 0 15 -14 15 -69z m380 59 c0 -5 -7 -10
-16 -10 -8 0 -12 5 -9 10 3 6 10 10 16 10 5 0 9 -4 9 -10z m-186 -52 l16 -22
20 22 c15 16 32 22 60 22 l40 0 0 -63 c0 -78 -17 -107 -65 -107 -37 0 -54 15
-37 32 8 8 16 7 27 -2 12 -10 19 -10 27 -2 9 9 7 12 -10 12 -12 0 -31 9 -42
20 l-20 20 -20 -20 c-57 -57 -132 20 -84 88 20 29 68 30 88 0z m184 -48 c-4
-78 -28 -80 -28 -2 0 32 3 62 7 66 15 14 24 -14 21 -64z m116 61 c4 -5 9 -30
13 -56 4 -34 2 -49 -8 -55 -21 -14 -29 -2 -29 46 0 38 -3 45 -17 42 -13 -2
-19 -16 -23 -47 -8 -70 -30 -65 -30 7 0 32 3 62 7 65 10 10 81 8 87 -2z
m-4366 -196 c37 -11 25 -25 -22 -25 -46 0 -69 16 -45 31 14 8 19 8 67 -6z
m8567 -55 c7 -12 -14 -21 -52 -24 -35 -1 -42 17 -11 26 35 10 56 9 63 -2z
m-125 -69 c0 -14 -18 -23 -30 -16 -6 4 -8 11 -5 16 8 12 35 12 35 0z m-1075
-150 c14 -8 -62 -17 -105 -12 -33 4 -33 5 -10 12 30 8 101 9 115 0z m-505 -71
c0 -5 -4 -10 -10 -10 -5 0 -10 5 -10 10 0 6 5 10 10 10 6 0 10 -4 10 -10z
m-2373 -574 c4 -3 -1 -6 -10 -6 -10 0 -17 -8 -17 -19 0 -14 -13 -24 -47 -35
-26 -9 -55 -16 -65 -16 -10 0 -23 -9 -30 -20 -14 -22 -38 -27 -38 -9 0 8 -4 8
-14 0 -10 -9 -15 -9 -18 0 -2 7 -45 12 -124 14 -66 1 -129 7 -140 13 -15 8
-27 8 -46 -2 -16 -8 -31 -10 -39 -5 -8 5 -39 9 -69 9 -100 2 -110 4 -110 23 0
14 9 17 56 17 32 0 53 4 49 9 -3 6 12 12 32 14 21 2 -17 4 -84 5 -93 2 -123
-1 -123 -10 0 -9 -4 -8 -10 2 -8 12 -13 13 -30 2 -12 -7 -20 -8 -20 -2 0 6
-34 11 -77 12 -43 2 111 5 342 8 463 7 623 6 632 -4z m-1094 -3 c-7 -2 -21 -2
-30 0 -10 3 -4 5 12 5 17 0 24 -2 18 -5z m311 -28 c3 -8 1 -15 -4 -15 -6 0
-10 7 -10 15 0 8 2 15 4 15 2 0 6 -7 10 -15z m-1644 -29 c8 -1 27 -10 42 -20
23 -15 63 -20 230 -28 112 -6 217 -10 233 -10 17 0 141 3 278 6 232 4 248 3
257 -14 8 -15 24 -18 106 -19 53 -1 100 -4 104 -6 5 -3 11 1 13 7 3 8 6 6 6
-4 1 -24 72 -58 126 -60 27 -2 47 -8 50 -16 3 -9 14 -13 30 -10 17 4 25 1 25
-9 0 -9 6 -13 15 -10 8 4 17 2 20 -3 4 -7 13 -6 25 0 11 6 31 8 45 4 18 -4 32
-1 45 11 16 14 20 15 20 4 0 -22 66 -37 151 -34 81 4 105 -5 111 -39 3 -22
-60 -58 -169 -97 -35 -13 -63 -26 -63 -31 0 -4 -8 -8 -17 -9 -10 0 -13 -3 -7
-5 13 -5 -13 -94 -27 -94 -5 0 -9 -5 -9 -11 0 -6 6 -9 14 -6 21 8 27 -3 11
-19 -7 -8 -24 -14 -37 -14 -18 0 -20 2 -8 10 27 17 3 20 -40 5 -23 -8 -49 -15
-56 -15 -21 0 -17 21 6 27 11 3 20 9 20 13 0 4 -9 10 -20 13 -11 3 -20 10 -20
17 0 6 5 8 12 4 6 -4 21 5 35 22 12 16 23 23 23 16 0 -9 7 -8 25 4 19 12 23
20 15 29 -8 9 -7 14 2 18 7 2 9 8 5 13 -10 11 -42 -9 -42 -27 -1 -8 -7 -13
-14 -11 -8 2 -22 -5 -32 -14 -15 -14 -21 -15 -34 -4 -9 7 -19 10 -22 6 -4 -4
-1 -11 6 -15 10 -6 5 -11 -17 -15 -35 -8 -48 -39 -25 -61 8 -8 10 -15 4 -15
-5 0 -17 7 -25 16 -15 14 -16 13 -14 -7 2 -12 -3 -24 -9 -26 -8 -3 -13 4 -13
16 0 14 -5 19 -15 15 -8 -4 -15 -15 -15 -25 0 -21 -8 -23 -29 -10 -7 5 -10 14
-7 20 4 6 12 8 18 5 7 -4 8 -2 4 4 -12 20 -36 13 -46 -12 -5 -14 -17 -25 -27
-25 -10 -1 -38 -2 -63 -4 -25 -2 -61 0 -80 3 -19 3 -51 3 -70 -1 -56 -12 -592
-19 -750 -10 -102 6 -157 13 -181 25 -25 12 -81 19 -185 25 -92 6 -166 15
-194 25 -25 9 -90 19 -145 22 -97 5 -224 27 -253 43 -18 10 45 19 183 26 296
16 300 16 325 35 19 15 22 20 10 24 -49 15 -211 36 -305 39 -74 2 -122 9 -145
20 -19 9 -66 19 -105 22 -81 7 -165 26 -165 36 0 11 44 17 180 24 69 3 161 11
205 17 101 13 116 15 190 23 114 12 125 15 125 34 0 11 -8 22 -17 25 -14 6
-15 9 -4 15 7 5 12 11 12 15 -1 3 -1 19 -1 35 0 26 4 30 33 34 17 3 50 2 72 0
22 -3 47 -6 55 -7z m6400 -30 c0 -17 -22 -26 -66 -26 -25 0 -38 -6 -50 -25 -9
-13 -26 -27 -37 -30 -43 -12 -102 -40 -122 -58 -10 -9 -37 -22 -60 -28 -56
-14 -85 -27 -85 -38 0 -5 -26 -19 -57 -31 -32 -11 -69 -29 -83 -39 -14 -9 -50
-25 -80 -35 -30 -10 -61 -26 -70 -36 -9 -10 -32 -21 -52 -25 -20 -4 -48 -16
-62 -28 -28 -23 -80 -43 -136 -52 -25 -4 -44 -16 -59 -36 -12 -16 -28 -29 -36
-29 -8 0 -15 -4 -15 -9 0 -6 -17 -11 -37 -13 -20 -2 -38 -8 -40 -14 -3 -8 14
-11 54 -8 78 5 106 12 100 27 -3 9 22 13 94 15 57 1 99 -2 99 -7 0 -10 -8 -13
-87 -31 -35 -8 -57 -19 -67 -35 -12 -18 -29 -25 -78 -31 -35 -5 -68 -9 -73 -9
-6 0 -21 -8 -34 -17 -14 -10 -75 -34 -135 -53 -61 -20 -120 -40 -131 -44 -30
-13 -156 -45 -188 -47 -16 -1 -34 -7 -40 -12 -14 -11 -144 -44 -182 -46 -5 -1
-26 -11 -45 -23 -25 -15 -54 -22 -100 -24 -36 -2 -80 -9 -97 -16 -18 -7 -33
-10 -33 -7 0 4 -6 2 -13 -4 -11 -9 -117 -32 -218 -46 -20 -3 -49 -10 -64 -16
-16 -6 -34 -9 -41 -6 -8 3 -16 1 -19 -4 -7 -11 -94 -29 -171 -36 -32 -2 -75
-7 -94 -10 -95 -14 -117 -15 -145 -4 l-30 12 50 13 c28 7 79 15 114 19 72 7
137 24 166 43 11 7 39 13 63 13 44 0 129 17 147 30 20 14 82 32 160 45 108 19
139 26 146 37 7 11 41 19 106 25 29 2 65 11 80 18 16 8 33 15 40 15 6 0 13 4
15 10 2 5 35 18 73 29 39 10 83 26 100 34 16 9 39 14 51 11 12 -3 25 -1 28 5
4 6 18 11 31 11 13 0 32 11 43 25 24 30 62 46 98 39 64 -12 71 -9 66 26 -4 27
0 32 32 45 19 8 39 15 43 14 19 -3 33 2 33 11 0 21 42 50 95 65 30 9 55 21 55
26 0 12 69 46 113 54 20 4 37 10 37 14 0 4 21 18 48 31 26 13 59 31 73 41 14
10 38 21 55 25 29 7 74 32 85 46 3 5 36 17 74 28 37 11 75 26 85 35 9 9 44 25
76 36 32 11 66 26 74 33 31 26 85 40 148 38 59 -3 63 -1 57 17 -8 26 18 40 78
41 34 0 47 -4 47 -14z m-4361 -79 c13 -16 5 -27 -21 -27 -18 0 -25 20 -11 33
10 10 19 8 32 -6z m-539 -412 c0 -9 -9 -15 -22 -15 -21 0 -21 0 -2 15 24 18
24 18 24 0z m2064 -75 c16 -16 -41 -31 -71 -19 -27 10 -28 11 -8 25 20 15 61
12 79 -6z m-257 -126 c-3 -3 -12 -4 -19 -1 -8 3 -5 6 6 6 11 1 17 -2 13 -5z
m195 -366 c-6 -6 -15 -8 -19 -4 -4 4 -1 11 7 16 19 12 27 3 12 -12z m-67 4
c37 -12 25 -30 -26 -41 -59 -13 -100 -6 -92 15 3 8 16 14 28 14 13 0 27 5 30
10 7 11 29 12 60 2z m-1185 -171 c0 -11 -19 -24 -36 -27 -7 -1 -9 6 -7 17 5
19 43 27 43 10z m50 -1 c0 -5 -4 -10 -10 -10 -5 0 -10 5 -10 10 0 6 5 10 10
10 6 0 10 -4 10 -10z m-1335 -90 c3 -5 14 -10 23 -9 14 0 13 2 -3 9 -19 8 -18
9 4 9 14 1 32 -6 42 -15 14 -12 40 -16 117 -16 55 0 105 3 111 6 6 4 11 2 11
-3 0 -6 9 -11 21 -11 29 0 18 -24 -12 -28 -13 -1 -69 -10 -124 -18 -55 -9
-128 -16 -161 -16 -48 1 -67 -3 -84 -18 -15 -13 -39 -20 -69 -21 -25 0 -57 -2
-71 -4 -59 -9 -240 -11 -240 -3 0 5 -7 11 -15 14 -17 7 -45 -18 -45 -40 0 -24
-20 -30 -100 -32 -41 -1 -118 -6 -172 -10 -98 -7 -148 -1 -118 15 8 5 60 12
115 16 55 4 118 9 140 12 22 2 50 4 62 4 13 -1 24 7 28 18 3 11 12 22 20 25 8
3 12 12 9 20 -4 11 0 13 15 9 12 -3 21 -8 21 -12 0 -4 16 -8 37 -8 26 -1 32 2
22 9 -10 7 -8 8 8 3 12 -3 31 -1 42 4 12 7 22 7 25 2 4 -5 0 -12 -6 -15 -7 -4
-2 -3 12 1 14 4 59 8 100 9 41 1 105 5 141 9 64 7 66 8 67 36 0 23 -4 29 -21
30 -17 1 -18 2 -4 6 9 2 15 9 12 14 -4 5 3 9 14 9 11 0 23 -4 26 -10z m-633
-58 c9 -2 19 -9 21 -16 3 -9 -21 -11 -92 -10 -116 1 -121 2 -121 13 0 16 144
25 192 13z m88 -32 c0 -5 -4 -10 -10 -10 -5 0 -10 5 -10 10 0 6 5 10 10 10 6
0 10 -4 10 -10z m-537 -29 c70 -1 87 -4 87 -16 0 -16 -25 -21 -34 -6 -3 4 -27
5 -54 0 -87 -13 -276 -20 -292 -10 -8 6 -11 14 -6 18 8 8 129 19 181 16 17 -1
69 -2 118 -2z m137 -126 c-8 -10 -28 -15 -59 -14 l-46 1 55 17 c61 20 69 19
50 -4z m6100 -110 c35 -18 50 -43 50 -82 0 -38 -23 -69 -70 -93 -28 -14 -40
-28 -45 -50 -14 -65 -125 -130 -185 -108 -13 5 -45 6 -71 3 l-46 -6 2 83 c1
62 6 92 20 115 22 37 65 72 95 76 11 2 32 15 47 30 16 14 39 30 53 36 38 15
117 13 150 -4z m1695 -16 c4 -6 -2 -13 -13 -16 -16 -4 -22 -15 -24 -42 -2 -28
-7 -36 -23 -36 -17 0 -20 6 -17 39 3 41 24 65 54 66 9 0 20 -5 23 -11z m1947
-17 c5 8 8 1 8 -19 0 -30 -3 -33 -31 -33 -27 0 -30 2 -19 15 10 12 8 16 -12
26 -35 15 -92 -10 -118 -53 -13 -21 -20 -27 -20 -16 0 23 64 86 92 90 13 2 38
-2 57 -9 28 -11 36 -11 43 -1z m-2669 -42 c16 0 27 -5 27 -14 0 -9 -22 -15
-77 -20 -110 -9 -133 -8 -133 7 0 30 24 39 90 33 36 -3 77 -6 93 -6z m-2192
-22 c1 -13 1 -26 1 -29 -1 -3 -4 -55 -8 -115 -4 -60 -10 -111 -14 -114 -5 -3
-73 -5 -152 -5 l-143 0 3 120 c4 183 -14 165 162 165 149 0 150 0 151 -22z
m1719 0 c0 -19 -2 -20 -10 -8 -13 19 -13 30 0 30 6 0 10 -10 10 -22z m2679 13
c12 -8 9 -11 -11 -16 -25 -6 -58 -55 -58 -84 0 -16 -46 -13 -60 4 -23 27 -4
61 47 83 56 24 63 25 82 13z m-10452 -16 c105 -31 158 -96 157 -192 0 -70 -36
-123 -106 -157 l-53 -26 -1341 -11 c-1009 -8 -1352 -8 -1385 1 -62 16 -114 55
-145 107 -61 104 -2 228 124 263 21 5 478 12 1151 16 614 4 1118 8 1120 10 2
2 100 4 216 4 158 0 224 -4 262 -15z m7790 -17 c-3 -7 -5 -2 -5 12 0 14 2 19
5 13 2 -7 2 -19 0 -25z m1003 18 c0 -8 -11 -17 -25 -20 -25 -6 -40 -38 -33
-73 2 -12 14 -19 38 -21 27 -3 39 2 55 21 22 28 115 50 115 28 0 -29 -44 -93
-78 -115 -72 -47 -111 -42 -71 8 l20 26 -33 0 c-83 1 -108 87 -41 140 30 23
53 26 53 6z m-3976 -16 c16 -6 28 -20 31 -37 4 -15 13 -43 21 -62 19 -44 11
-67 -45 -118 -49 -46 -102 -64 -132 -44 -11 6 -31 11 -47 11 -51 0 -68 25 -89
131 -4 22 5 37 49 84 l53 56 67 -5 c37 -3 78 -10 92 -16z m5266 -52 c0 -15
-24 -8 -47 14 l-23 21 -23 -21 c-13 -12 -32 -22 -43 -22 -15 0 -10 9 24 41
l44 41 34 -33 c19 -18 34 -37 34 -41z m-6491 37 c98 -50 111 -173 24 -229 -56
-35 -104 -41 -156 -18 -86 38 -113 117 -64 191 43 64 131 90 196 56z m1821 -5
c36 -36 23 -200 -17 -200 -7 0 -13 -6 -13 -14 0 -19 -17 -24 -104 -32 -67 -6
-77 -4 -105 15 -29 21 -40 49 -24 64 3 4 12 2 20 -4 11 -9 13 0 13 54 0 115
21 135 138 136 59 1 76 -3 92 -19z m-3031 2 c44 -3 101 -61 101 -102 0 -50
-24 -70 -82 -70 -44 0 -49 2 -43 19 10 32 -4 66 -35 84 -33 20 -101 22 -118 5
-9 -9 -12 -9 -12 3 0 21 91 66 129 64 17 -1 44 -2 60 -3z m477 -7 c-4 -12 7
-15 67 -16 40 0 90 -1 112 -2 l40 -2 0 -108 c0 -145 -2 -147 -164 -147 -161 0
-161 0 -161 135 0 113 6 125 63 125 14 0 27 7 31 15 3 8 8 15 12 15 3 0 4 -7
0 -15z m7646 -10 c10 -23 8 -29 -15 -52 -23 -23 -30 -26 -54 -17 -22 8 -27 16
-25 34 1 14 10 32 18 40 14 13 15 11 12 -25 -2 -31 1 -40 15 -43 14 -3 17 4
18 35 1 21 1 41 0 46 -3 18 21 4 31 -18z m398 5 c9 -17 6 -25 -15 -45 -20 -21
-29 -24 -44 -16 -27 15 -32 35 -15 60 19 27 60 27 74 1z m-10242 -2 c7 -7 12
-45 12 -99 0 -70 -3 -88 -16 -93 -26 -10 -232 -7 -239 4 -3 5 -7 48 -8 95 -1
66 2 88 13 95 23 14 224 12 238 -2z m7498 -19 c28 -30 28 -32 10 -43 -10 -6
-26 -19 -35 -28 -17 -19 -41 -24 -41 -9 0 6 9 16 20 24 l20 14 -21 26 c-20 27
-19 47 5 47 7 0 25 -14 42 -31z m-6490 6 c14 -9 53 -15 115 -17 l94 -3 0 -110
0 -110 -27 -3 c-24 -3 -28 0 -28 20 0 47 -34 56 -157 42 -47 -6 -53 -9 -58
-36 -6 -24 -11 -29 -33 -26 l-27 3 0 110 c0 61 3 118 7 128 9 22 84 24 114 2z
m9114 -5 c0 -5 -5 -10 -11 -10 -6 0 -19 -10 -29 -22 -23 -28 -37 -17 -22 17 8
17 20 25 37 25 14 0 25 -4 25 -10z m-14072 -65 c2 -53 0 -61 -15 -61 -10 0
-43 -4 -73 -7 -30 -4 -49 -4 -42 -1 6 3 12 10 12 15 0 6 -4 8 -9 5 -10 -7 -25
90 -16 105 4 5 36 9 73 7 l67 -3 3 -60z m139 59 c25 -5 29 -10 25 -30 -2 -13
-11 -24 -21 -24 -14 -1 -14 -2 2 -11 20 -12 23 -33 3 -26 -16 6 -40 -16 -29
-26 3 -4 -12 -7 -34 -7 l-40 0 -7 56 c-3 30 -4 60 -1 65 7 10 58 12 102 3z
m7419 -19 c38 -57 -6 -153 -84 -186 -55 -24 -84 -19 -58 9 23 26 21 29 -21 37
-51 9 -73 31 -73 72 0 25 8 43 29 64 28 27 34 29 110 29 75 0 82 -2 97 -25z
m2224 10 c17 -9 30 -22 30 -30 0 -17 -56 -49 -70 -40 -11 7 -14 68 -3 78 9 9
10 9 43 -8z m4306 -25 c8 0 14 -5 14 -11 0 -12 -40 -2 -55 14 -7 7 -4 8 8 3
10 -3 25 -6 33 -6z m-2508 -32 c2 -11 -9 -17 -39 -21 -48 -6 -69 -1 -69 18 0
9 15 15 38 17 55 5 67 3 70 -14z m-7236 -11 c-5 -7 -12 -24 -16 -39 -9 -37
-26 -36 -26 2 0 17 -4 30 -10 30 -23 0 -8 19 18 22 34 5 46 -1 34 -15z m-4412
-103 c0 -8 -4 -12 -10 -9 -9 6 -14 -7 -11 -30 1 -5 -8 1 -19 15 -27 34 -25 40
10 40 21 0 30 -5 30 -16z m12218 -26 c2 -13 -7 -18 -40 -23 -71 -10 -153 -2
-153 15 0 18 38 26 125 25 52 0 65 -3 68 -17z m-628 -13 c0 -16 -64 -22 -74
-6 -9 14 5 21 41 21 23 0 33 -5 33 -15z m-580 -10 c0 -10 -11 -15 -35 -15 -54
0 -43 27 13 29 13 1 22 -5 22 -14z m-11010 -51 c0 -2 -9 -4 -20 -4 -11 0 -20
4 -20 9 0 5 9 7 20 4 11 -3 20 -7 20 -9z m8084 10 c24 -9 9 -24 -25 -24 -32 0
-40 16 -11 23 9 3 18 5 19 6 1 0 8 -2 17 -5z m-8031 -11 c-7 -2 -21 -2 -30 0
-10 3 -4 5 12 5 17 0 24 -2 18 -5z m6848 -18 c0 -5 -12 -11 -26 -13 -18 -2
-25 1 -25 13 0 12 7 15 25 13 14 -2 26 -7 26 -13z m-1796 -20 c0 -5 -15 -11
-32 -13 -32 -3 -45 11 -20 22 19 8 52 2 52 -9z"/>
<path d="M8471 6482 c-10 -18 -9 -23 4 -28 22 -9 27 -1 17 27 l-9 23 -12 -22z"/>
<path d="M6662 6498 c-27 -27 -2 -75 32 -62 12 5 16 16 14 38 -3 33 -25 45
-46 24z"/>
<path d="M6842 6498 c-23 -23 -7 -68 25 -68 7 0 17 9 23 21 9 16 8 25 -6 40
-20 22 -26 23 -42 7z"/>
<path d="M7474 6486 c-11 -29 0 -51 26 -51 21 0 25 5 25 30 0 24 -5 31 -23 33
-13 2 -24 -3 -28 -12z"/>
<path d="M7900 6481 c-12 -23 -5 -47 17 -55 33 -13 57 36 31 62 -18 18 -36 15
-48 -7z"/>
<path d="M8987 6484 c-14 -14 -7 -62 9 -68 24 -9 45 13 42 43 -3 26 -35 41
-51 25z"/>
<path d="M6623 5740 c-26 -11 -30 -28 -8 -36 18 -7 45 12 45 32 0 16 -6 16
-37 4z"/>
<path d="M7357 5773 c-14 -13 -7 -64 9 -70 24 -9 48 21 40 51 -6 25 -33 35
-49 19z"/>
<path d="M10621 4864 c0 -11 3 -14 6 -6 3 7 2 16 -1 19 -3 4 -6 -2 -5 -13z"/>
<path d="M7875 4099 c-12 -19 4 -59 24 -59 22 0 34 25 26 51 -7 20 -40 26 -50
8z"/>
<path d="M8007 4103 c-4 -3 -7 -19 -7 -35 0 -21 5 -28 19 -28 26 0 34 15 27
46 -6 23 -25 32 -39 17z"/>
<path d="M7828 3003 c6 -2 18 -2 25 0 6 3 1 5 -13 5 -14 0 -19 -2 -12 -5z"/>
<path d="M7903 3003 c9 -2 25 -2 35 0 9 3 1 5 -18 5 -19 0 -27 -2 -17 -5z"/>
<path d="M7758 2983 c18 -2 45 -2 60 0 15 2 0 4 -33 4 -33 0 -45 -2 -27 -4z"/>
<path d="M7883 2983 c9 -2 23 -2 30 0 6 3 -1 5 -18 5 -16 0 -22 -2 -12 -5z"/>
<path d="M7953 2983 c15 -2 39 -2 55 0 15 2 2 4 -28 4 -30 0 -43 -2 -27 -4z"/>
<path d="M8173 2968 c1 -7 -13 -15 -32 -18 -29 -4 -32 -7 -19 -18 12 -9 23
-10 43 -2 15 6 25 13 21 17 -3 3 -1 12 5 20 9 10 8 13 -5 13 -9 0 -15 -5 -13
-12z"/>
<path d="M5888 2899 c-1 -12 -9 -24 -16 -27 -7 -2 -11 2 -10 9 2 8 -7 14 -24
14 -16 1 -28 -3 -28 -7 0 -4 5 -8 11 -8 5 0 8 -4 5 -9 -7 -11 37 -23 57 -15
18 7 30 45 18 57 -6 6 -11 0 -13 -14z"/>
<path d="M5922 2900 c0 -14 2 -19 5 -12 2 6 2 18 0 25 -3 6 -5 1 -5 -13z"/>
<path d="M5823 2843 c-20 -7 -15 -23 7 -23 11 0 20 4 20 9 0 13 -12 19 -27 14z"/>
<path d="M6740 2570 c0 -5 5 -10 11 -10 5 0 7 5 4 10 -3 6 -8 10 -11 10 -2 0
-4 -4 -4 -10z"/>
<path d="M6505 2560 c-3 -4 -25 -5 -50 -2 -29 3 -45 1 -45 -6 0 -7 15 -10 35
-8 19 1 35 0 35 -4 0 -3 36 -7 80 -7 63 -1 80 2 80 13 0 8 -8 15 -17 16 -67 5
-114 5 -118 -2z"/>
<path d="M6790 2560 c10 -7 -10 -8 -64 -4 -65 6 -78 5 -74 -7 5 -17 48 -25 48
-10 0 6 5 11 11 11 5 0 8 -3 6 -7 -3 -5 17 -8 44 -8 40 0 49 3 49 18 0 10 -7
17 -17 17 -16 0 -16 -2 -3 -10z"/>
<path d="M6838 2559 c-7 -4 -9 -11 -5 -16 5 -4 12 -1 16 6 7 10 10 10 16 1 6
-9 9 -9 15 0 5 9 17 9 44 2 21 -6 38 -7 42 -1 9 15 34 10 28 -6 -4 -8 -1 -15
5 -15 6 0 11 9 11 20 0 18 -6 20 -80 18 -44 -1 -85 -5 -92 -9z"/>
<path d="M7565 2520 c-3 -5 -1 -10 4 -10 6 0 11 5 11 10 0 6 -2 10 -4 10 -3 0
-8 -4 -11 -10z"/>
<path d="M11997 1213 c-13 -13 -7 -43 9 -43 12 0 15 -7 12 -24 -4 -17 -1 -23
9 -19 20 8 15 41 -8 48 -14 5 -19 13 -16 26 5 20 4 23 -6 12z"/>
<path d="M11946 1197 c2 -7 -7 -24 -21 -37 -32 -30 -32 -40 3 -39 16 1 20 3
10 6 -24 6 -23 20 2 33 20 11 28 50 10 50 -5 0 -7 -6 -4 -13z"/>
<path d="M11805 1169 c-60 -25 -88 -78 -81 -159 4 -55 4 -55 43 -63 21 -4 55
-7 76 -8 63 -1 126 51 127 104 0 25 -3 27 -39 27 -47 0 -76 22 -93 71 -11 31
-16 35 -33 28z m9 -65 c3 -9 6 -24 6 -33 0 -29 35 -54 57 -42 27 14 51 -2 34
-23 -18 -21 -39 -20 -78 4 -41 25 -69 76 -52 96 15 18 25 18 33 -2z"/>
<path d="M10780 1102 c0 -21 -6 -44 -12 -51 -11 -10 -9 -12 7 -9 16 2 21 12
23 51 2 28 -1 47 -7 47 -6 0 -11 -17 -11 -38z"/>
<path d="M10573 1111 c-13 -21 -8 -31 17 -31 13 0 16 6 12 25 -5 30 -13 32
-29 6z"/>
<path d="M10699 1080 c-9 -22 0 -40 19 -40 11 0 13 3 6 8 -7 4 -13 16 -16 27
-3 15 -5 17 -9 5z"/>
<path d="M10663 1050 c-12 -28 -6 -47 9 -32 5 5 8 20 6 33 l-5 24 -10 -25z"/>
<path d="M10567 1036 c-3 -8 0 -21 6 -31 11 -14 15 -15 41 -2 26 14 27 15 7
22 -12 3 -21 11 -21 16 0 14 -27 11 -33 -5z"/>
<path d="M2072 1020 c-33 -31 -29 -73 10 -105 27 -23 39 -26 73 -22 32 5 45 1
62 -15 30 -28 43 -15 15 15 -17 18 -20 31 -16 57 9 53 -24 90 -80 90 -29 0
-49 -7 -64 -20z m111 -18 c24 -21 21 -58 -5 -76 -30 -22 -60 -20 -86 4 -35 33
-27 71 18 88 28 10 47 6 73 -16z"/>
<path d="M2414 995 c-8 -20 11 -41 42 -49 35 -9 28 -39 -11 -47 l-30 -7 31 -1
c33 -1 60 21 49 39 -3 5 -19 17 -36 25 -37 19 -37 42 -1 48 25 4 24 4 -6 6
-21 0 -35 -4 -38 -14z"/>
<path d="M2882 972 c-1 -46 3 -51 17 -24 6 12 5 25 -4 41 -12 24 -13 23 -13
-17z"/>
<path d="M2808 969 c-10 -5 -18 -20 -17 -32 l0 -22 9 23 c5 12 20 27 32 32 13
5 16 9 8 9 -8 0 -23 -4 -32 -10z"/>
<path d="M2933 970 c10 -6 17 -23 17 -40 0 -17 4 -30 8 -30 5 0 6 17 3 37 -5
27 -12 39 -26 41 -18 2 -19 2 -2 -8z"/>
<path d="M2521 952 c-13 -25 -1 -41 24 -31 17 6 17 8 3 8 -29 1 -21 29 10 34
l27 4 -27 2 c-17 0 -31 -6 -37 -17z"/>
<path d="M2673 963 c4 -6 -6 -16 -23 -22 -17 -5 -30 -14 -30 -20 0 -5 12 -4
27 4 15 8 30 12 35 9 4 -3 8 2 8 10 0 8 -5 18 -12 22 -6 4 -8 3 -5 -3z"/>
<path d="M2722 935 c1 -19 6 -35 11 -35 5 0 7 8 4 19 -2 10 0 26 5 35 7 12 5
16 -7 16 -12 0 -15 -9 -13 -35z"/>
<path d="M2570 930 c0 -5 7 -7 15 -4 8 4 15 8 15 10 0 2 -7 4 -15 4 -8 0 -15
-4 -15 -10z"/>
<path d="M2675 911 c-6 -5 -19 -11 -30 -14 -13 -3 -9 -5 13 -6 22 -1 32 4 32
14 0 17 -2 18 -15 6z"/>
<path d="M2885 910 c-3 -5 -1 -10 4 -10 6 0 11 5 11 10 0 6 -2 10 -4 10 -3 0
-8 -4 -11 -10z"/>
<path d="M4287 913 c-4 -3 -7 -12 -7 -20 0 -15 26 -18 34 -4 7 11 -18 33 -27
24z"/>
<path d="M2553 893 c9 -2 23 -2 30 0 6 3 -1 5 -18 5 -16 0 -22 -2 -12 -5z"/>
<path d="M2828 893 c7 -3 16 -2 19 1 4 3 -2 6 -13 5 -11 0 -14 -3 -6 -6z"/>
<path d="M9453 1133 c-17 -6 -36 -79 -27 -105 8 -28 24 -5 24 37 0 20 9 37 28
52 24 20 25 22 7 22 -11 0 -26 -3 -32 -6z"/>
<path d="M9512 1105 c-13 -7 -29 -18 -35 -24 -17 -17 14 -13 37 4 24 18 58 19
74 3 17 -17 28 -2 12 17 -15 18 -56 18 -88 0z"/>
<path d="M9375 1050 c-10 -30 2 -53 36 -72 34 -20 49 -23 49 -9 0 5 -13 14
-30 21 -23 10 -30 19 -30 41 0 34 -16 47 -25 19z"/>
<path d="M9573 1045 c30 -21 37 -32 37 -58 1 -30 1 -31 15 -13 8 11 15 24 15
29 0 18 -59 67 -82 67 -20 0 -18 -3 15 -25z"/>
<path d="M9479 1029 c-14 -26 8 -53 34 -43 21 8 22 50 1 58 -22 8 -22 8 -35
-15z"/>
<path d="M9568 1014 c-5 -4 -8 -21 -8 -38 0 -37 -7 -48 -40 -63 l-25 -12 32 0
c23 -1 36 5 43 19 12 23 10 107 -2 94z"/>
<path d="M9490 949 c-19 -11 -42 -16 -50 -13 -8 3 -21 8 -27 11 -7 3 -13 -2
-13 -11 0 -25 47 -31 86 -10 35 19 50 32 43 39 -2 1 -20 -6 -39 -16z"/>
<path d="M8228 1064 c-13 -4 -16 -14 -13 -42 1 -20 4 -39 5 -42 1 -3 3 -11 4
-19 1 -9 17 -14 51 -15 28 -1 64 -6 80 -9 28 -7 31 -5 54 43 13 27 22 51 20
53 -32 23 -161 43 -201 31z"/>
<path d="M10014 1086 c-9 -23 0 -119 12 -123 8 -3 10 10 7 39 -6 58 24 93 73
85 19 -3 34 -2 34 4 0 15 -120 11 -126 -5z"/>
<path d="M10166 1057 c-3 -12 -6 -31 -6 -43 0 -11 -9 -30 -20 -42 -19 -20 -19
-22 -3 -22 31 0 40 13 48 66 7 53 -7 84 -19 41z"/>
<path d="M10074 1035 c-8 -19 3 -35 26 -35 22 0 33 23 17 39 -15 15 -37 14
-43 -4z"/>
<path d="M7660 995 c0 -8 7 -15 15 -15 8 0 15 7 15 15 0 8 -7 15 -15 15 -8 0
-15 -7 -15 -15z"/>
<path d="M7657 954 c-14 -15 -6 -34 14 -34 14 0 19 5 17 17 -3 18 -20 27 -31
17z"/>
<path d="M1576 995 c-3 -8 -1 -15 4 -15 6 0 10 7 10 15 0 8 -2 15 -4 15 -2 0
-6 -7 -10 -15z"/>
<path d="M8867 1042 c-35 -39 -15 -82 38 -82 36 0 55 15 55 45 0 47 -62 71
-93 37z"/>
<path d="M11460 7175 c0 -8 4 -15 10 -15 5 0 7 7 4 15 -4 8 -8 15 -10 15 -2 0
-4 -7 -4 -15z"/>
<path d="M11621 7174 c0 -11 3 -14 6 -6 3 7 2 16 -1 19 -3 4 -6 -2 -5 -13z"/>
<path d="M11420 7154 c0 -16 5 -36 10 -44 6 -10 7 -2 3 25 -7 49 -13 58 -13
19z"/>
<path d="M11401 7154 c0 -11 3 -14 6 -6 3 7 2 16 -1 19 -3 4 -6 -2 -5 -13z"/>
<path d="M11381 7144 c0 -11 3 -14 6 -6 3 7 2 16 -1 19 -3 4 -6 -2 -5 -13z"/>
<path d="M11491 7134 c0 -11 3 -14 6 -6 3 7 2 16 -1 19 -3 4 -6 -2 -5 -13z"/>
<path d="M13360 7142 c0 -7 -4 -10 -10 -7 -15 9 -12 -11 4 -24 17 -14 29 8 15
30 -7 11 -9 11 -9 1z"/>
<path d="M4780 7130 c0 -5 5 -10 11 -10 5 0 7 5 4 10 -3 6 -8 10 -11 10 -2 0
-4 -4 -4 -10z"/>
<path d="M11565 7120 c3 -5 8 -10 11 -10 2 0 4 5 4 10 0 6 -5 10 -11 10 -5 0
-7 -4 -4 -10z"/>
<path d="M11611 7104 c0 -11 3 -14 6 -6 3 7 2 16 -1 19 -3 4 -6 -2 -5 -13z"/>
<path d="M13831 7094 c0 -11 3 -14 6 -6 3 7 2 16 -1 19 -3 4 -6 -2 -5 -13z"/>
<path d="M14248 7073 c7 -3 16 -2 19 1 4 3 -2 6 -13 5 -11 0 -14 -3 -6 -6z"/>
<path d="M3010 6966 c0 -2 7 -6 15 -10 8 -3 15 -1 15 4 0 6 -7 10 -15 10 -8 0
-15 -2 -15 -4z"/>
<path d="M14995 6940 c-3 -5 -2 -10 4 -10 5 0 16 -3 25 -6 11 -4 16 -1 16 10
0 18 -35 22 -45 6z"/>
<path d="M2608 6873 c7 -3 16 -2 19 1 4 3 -2 6 -13 5 -11 0 -14 -3 -6 -6z"/>
<path d="M15280 6831 c0 -6 17 -7 38 -4 51 8 53 13 4 13 -23 0 -42 -4 -42 -9z"/>
<path d="M2550 6810 c0 -5 5 -10 11 -10 5 0 7 5 4 10 -3 6 -8 10 -11 10 -2 0
-4 -4 -4 -10z"/>
<path d="M15773 6793 c9 -2 23 -2 30 0 6 3 -1 5 -18 5 -16 0 -22 -2 -12 -5z"/>
<path d="M2185 6781 c-7 -12 12 -24 25 -16 11 7 4 25 -10 25 -5 0 -11 -4 -15
-9z"/>
<path d="M15840 6759 c0 -5 5 -7 10 -4 6 3 10 8 10 11 0 2 -4 4 -10 4 -5 0
-10 -5 -10 -11z"/>
<path d="M1826 6735 c-3 -8 -1 -15 4 -15 6 0 10 7 10 15 0 8 -2 15 -4 15 -2 0
-6 -7 -10 -15z"/>
<path d="M15906 6741 c-3 -5 1 -12 10 -15 22 -8 25 -4 9 11 -8 7 -16 9 -19 4z"/>
<path d="M1938 6723 c7 -3 16 -2 19 1 4 3 -2 6 -13 5 -11 0 -14 -3 -6 -6z"/>
<path d="M1660 6710 c0 -5 5 -10 10 -10 6 0 10 5 10 10 0 6 -4 10 -10 10 -5 0
-10 -4 -10 -10z"/>
<path d="M15950 6700 c0 -13 20 -13 40 0 12 8 9 10 -12 10 -16 0 -28 -4 -28
-10z"/>
<path d="M866 6571 c-3 -5 1 -11 9 -14 9 -4 12 -1 8 9 -6 16 -10 17 -17 5z"/>
<path d="M815 6560 c-3 -5 1 -10 9 -10 9 0 16 5 16 10 0 6 -4 10 -9 10 -6 0
-13 -4 -16 -10z"/>
<path d="M908 6563 c7 -3 16 -2 19 1 4 3 -2 6 -13 5 -11 0 -14 -3 -6 -6z"/>
<path d="M15958 1184 c-16 -8 -28 -19 -28 -24 0 -13 8 -13 23 0 7 6 21 17 32
25 26 19 8 18 -27 -1z"/>
<path d="M15974 1156 c-10 -8 -17 -17 -14 -19 3 -3 14 1 24 9 11 7 17 16 15
19 -3 3 -14 -2 -25 -9z"/>
</g>
</svg>
